# Toothed annulus in the XY plane, extruded along Z. 96 teeth, tip radius 1.0,
# root radius 0.9, bore radius 0.82, thickness 0.07.
#
# No vertex normals and no texture coordinates. The loader keeps normals only
# when every corner of every face carries one, so a file with none takes the
# flat-shaded path -- and a gear is the one object here that should read as
# faceted. Faces are quads, which the loader triangulates on load.
#
# 3072 triangles from 1536 faces, 1536 vertices.
# Object space spans [-0.9999, 0.9999] on X, [-0.9999, 0.9999] on Y, [-0.0350, 0.0350] on Z.
#
# Generated by scripts/generate-mesh-assets.py -- edit the script, not this file.

v 0.900000 0.000000 0.035000
v 0.900000 0.000000 -0.035000
v 0.820000 0.000000 0.035000
v 0.820000 0.000000 -0.035000
v 0.999945 0.010472 0.035000
v 0.999945 0.010472 -0.035000
v 0.819955 0.008587 0.035000
v 0.819955 0.008587 -0.035000
v 0.999585 0.028794 0.035000
v 0.999585 0.028794 -0.035000
v 0.819660 0.023611 0.035000
v 0.819660 0.023611 -0.035000
v 0.899306 0.035334 0.035000
v 0.899306 0.035334 -0.035000
v 0.819368 0.032193 0.035000
v 0.819368 0.032193 -0.035000
v 0.898073 0.058863 0.035000
v 0.898073 0.058863 -0.035000
v 0.818244 0.053631 0.035000
v 0.818244 0.053631 -0.035000
v 0.997119 0.075849 0.035000
v 0.997119 0.075849 -0.035000
v 0.817638 0.062196 0.035000
v 0.817638 0.062196 -0.035000
v 0.995562 0.094108 0.035000
v 0.995562 0.094108 -0.035000
v 0.816361 0.077169 0.035000
v 0.816361 0.077169 -0.035000
v 0.895070 0.094076 0.035000
v 0.895070 0.094076 -0.035000
v 0.815508 0.085713 0.035000
v 0.815508 0.085713 -0.035000
v 0.892300 0.117474 0.035000
v 0.892300 0.117474 -0.035000
v 0.812985 0.107031 0.035000
v 0.812985 0.107031 -0.035000
v 0.990024 0.140901 0.035000
v 0.990024 0.140901 -0.035000
v 0.811819 0.115539 0.035000
v 0.811819 0.115539 -0.035000
v 0.987275 0.159020 0.035000
v 0.987275 0.159020 -0.035000
v 0.809566 0.130396 0.035000
v 0.809566 0.130396 -0.035000
v 0.887000 0.152415 0.035000
v 0.887000 0.152415 -0.035000
v 0.808156 0.138867 0.035000
v 0.808156 0.138867 -0.035000
v 0.882707 0.175581 0.035000
v 0.882707 0.175581 -0.035000
v 0.804244 0.159974 0.035000
v 0.804244 0.159974 -0.035000
v 0.978689 0.205350 0.035000
v 0.978689 0.205350 -0.035000
v 0.802525 0.168387 0.035000
v 0.802525 0.168387 -0.035000
v 0.974761 0.223250 0.035000
v 0.974761 0.223250 -0.035000
v 0.799304 0.183065 0.035000
v 0.799304 0.183065 -0.035000
v 0.875133 0.210101 0.035000
v 0.875133 0.210101 -0.035000
v 0.797343 0.191425 0.035000
v 0.797343 0.191425 -0.035000
v 0.869333 0.232937 0.035000
v 0.869333 0.232937 -0.035000
v 0.792059 0.212232 0.035000
v 0.792059 0.212232 -0.035000
v 0.963163 0.268920 0.035000
v 0.963163 0.268920 -0.035000
v 0.789793 0.220514 0.035000
v 0.789793 0.220514 -0.035000
v 0.958073 0.286525 0.035000
v 0.958073 0.286525 -0.035000
v 0.785620 0.234950 0.035000
v 0.785620 0.234950 -0.035000
v 0.859518 0.266887 0.035000
v 0.859518 0.266887 -0.035000
v 0.783116 0.243164 0.035000
v 0.783116 0.243164 -0.035000
v 0.852237 0.289296 0.035000
v 0.852237 0.289296 -0.035000
v 0.776483 0.263580 0.035000
v 0.776483 0.263580 -0.035000
v 0.943512 0.331338 0.035000
v 0.943512 0.331338 -0.035000
v 0.773680 0.271697 0.035000
v 0.773680 0.271697 -0.035000
v 0.937282 0.348572 0.035000
v 0.937282 0.348572 -0.035000
v 0.768571 0.285829 0.035000
v 0.768571 0.285829 -0.035000
v 0.840222 0.322531 0.035000
v 0.840222 0.322531 -0.035000
v 0.765536 0.293862 0.035000
v 0.765536 0.293862 -0.035000
v 0.831492 0.344415 0.035000
v 0.831492 0.344415 -0.035000
v 0.757581 0.313800 0.035000
v 0.757581 0.313800 -0.035000
v 0.919821 0.392337 0.035000
v 0.919821 0.392337 -0.035000
v 0.754254 0.321716 0.035000
v 0.754254 0.321716 -0.035000
v 0.912477 0.409127 0.035000
v 0.912477 0.409127 -0.035000
v 0.748232 0.335484 0.035000
v 0.748232 0.335484 -0.035000
v 0.817329 0.376794 0.035000
v 0.817329 0.376794 -0.035000
v 0.744677 0.343301 0.035000
v 0.744677 0.343301 -0.035000
v 0.807185 0.398060 0.035000
v 0.807185 0.398060 -0.035000
v 0.735436 0.362677 0.035000
v 0.735436 0.362677 -0.035000
v 0.892192 0.451656 0.035000
v 0.892192 0.451656 -0.035000
v 0.731597 0.370358 0.035000
v 0.731597 0.370358 -0.035000
v 0.883766 0.467930 0.035000
v 0.883766 0.467930 -0.035000
v 0.724688 0.383702 0.035000
v 0.724688 0.383702 -0.035000
v 0.790935 0.429443 0.035000
v 0.790935 0.429443 -0.035000
v 0.720630 0.391270 0.035000
v 0.720630 0.391270 -0.035000
v 0.779423 0.450000 0.035000
v 0.779423 0.450000 -0.035000
v 0.710141 0.410000 0.035000
v 0.710141 0.410000 -0.035000
v 0.860742 0.509041 0.035000
v 0.860742 0.509041 -0.035000
v 0.705808 0.417414 0.035000
v 0.705808 0.417414 -0.035000
v 0.851269 0.524729 0.035000
v 0.851269 0.524729 -0.035000
v 0.698041 0.430278 0.035000
v 0.698041 0.430278 -0.035000
v 0.761155 0.480253 0.035000
v 0.761155 0.480253 -0.035000
v 0.693497 0.437564 0.035000
v 0.693497 0.437564 -0.035000
v 0.748323 0.500013 0.035000
v 0.748323 0.500013 -0.035000
v 0.681805 0.455568 0.035000
v 0.681805 0.455568 -0.035000
v 0.825606 0.564247 0.035000
v 0.825606 0.564247 -0.035000
v 0.676997 0.462682 0.035000
v 0.676997 0.462682 -0.035000
v 0.815128 0.579281 0.035000
v 0.815128 0.579281 -0.035000
v 0.668405 0.475011 0.035000
v 0.668405 0.475011 -0.035000
v 0.728115 0.529007 0.035000
v 0.728115 0.529007 -0.035000
v 0.663394 0.481984 0.035000
v 0.663394 0.481984 -0.035000
v 0.714018 0.547885 0.035000
v 0.714018 0.547885 -0.035000
v 0.650550 0.499184 0.035000
v 0.650550 0.499184 -0.035000
v 0.786935 0.617036 0.035000
v 0.786935 0.617036 -0.035000
v 0.645287 0.505969 0.035000
v 0.645287 0.505969 -0.035000
v 0.775496 0.631353 0.035000
v 0.775496 0.631353 -0.035000
v 0.635907 0.517709 0.035000
v 0.635907 0.517709 -0.035000
v 0.691958 0.575495 0.035000
v 0.691958 0.575495 -0.035000
v 0.630450 0.524340 0.035000
v 0.630450 0.524340 -0.035000
v 0.676656 0.593411 0.035000
v 0.676656 0.593411 -0.035000
v 0.616509 0.540664 0.035000
v 0.616509 0.540664 -0.035000
v 0.744894 0.667183 0.035000
v 0.744894 0.667183 -0.035000
v 0.610813 0.547090 0.035000
v 0.610813 0.547090 -0.035000
v 0.732543 0.680721 0.035000
v 0.732543 0.680721 -0.035000
v 0.600685 0.558191 0.035000
v 0.600685 0.558191 -0.035000
v 0.652837 0.619519 0.035000
v 0.652837 0.619519 -0.035000
v 0.594807 0.564451 0.035000
v 0.594807 0.564451 -0.035000
v 0.636396 0.636396 0.035000
v 0.636396 0.636396 -0.035000
v 0.579828 0.579828 0.035000
v 0.579828 0.579828 -0.035000
v 0.699663 0.714473 0.035000
v 0.699663 0.714473 -0.035000
v 0.573724 0.585868 0.035000
v 0.573724 0.585868 -0.035000
v 0.686453 0.727174 0.035000
v 0.686453 0.727174 -0.035000
v 0.562892 0.596283 0.035000
v 0.562892 0.596283 -0.035000
v 0.610921 0.660890 0.035000
v 0.610921 0.660890 -0.035000
v 0.556617 0.602144 0.035000
v 0.556617 0.602144 -0.035000
v 0.593411 0.676656 0.035000
v 0.593411 0.676656 -0.035000
v 0.540664 0.616509 0.035000
v 0.540664 0.616509 -0.035000
v 0.651437 0.758703 0.035000
v 0.651437 0.758703 -0.035000
v 0.534178 0.622137 0.035000
v 0.534178 0.622137 -0.035000
v 0.637424 0.770513 0.035000
v 0.637424 0.770513 -0.035000
v 0.522688 0.631821 0.035000
v 0.522688 0.631821 -0.035000
v 0.566388 0.699431 0.035000
v 0.566388 0.699431 -0.035000
v 0.516043 0.637260 0.035000
v 0.516043 0.637260 -0.035000
v 0.547885 0.714018 0.035000
v 0.547885 0.714018 -0.035000
v 0.499184 0.650550 0.035000
v 0.499184 0.650550 -0.035000
v 0.600420 0.799685 0.035000
v 0.600420 0.799685 -0.035000
v 0.492345 0.655741 0.035000
v 0.492345 0.655741 -0.035000
v 0.585665 0.810553 0.035000
v 0.585665 0.810553 -0.035000
v 0.480245 0.664653 0.035000
v 0.480245 0.664653 -0.035000
v 0.519431 0.734977 0.035000
v 0.519431 0.734977 -0.035000
v 0.473259 0.669646 0.035000
v 0.473259 0.669646 -0.035000
v 0.500013 0.748323 0.035000
v 0.500013 0.748323 -0.035000
v 0.455568 0.681805 0.035000
v 0.455568 0.681805 -0.035000
v 0.546833 0.837242 0.035000
v 0.546833 0.837242 -0.035000
v 0.448403 0.686538 0.035000
v 0.448403 0.686538 -0.035000
v 0.531399 0.847122 0.035000
v 0.531399 0.847122 -0.035000
v 0.435747 0.694640 0.035000
v 0.435747 0.694640 -0.035000
v 0.470249 0.767376 0.035000
v 0.470249 0.767376 -0.035000
v 0.428449 0.699165 0.035000
v 0.428449 0.699165 -0.035000
v 0.450000 0.779423 0.035000
v 0.450000 0.779423 -0.035000
v 0.410000 0.710141 0.035000
v 0.410000 0.710141 -0.035000
v 0.490904 0.871214 0.035000
v 0.490904 0.871214 -0.035000
v 0.402541 0.714395 0.035000
v 0.402541 0.714395 -0.035000
v 0.474856 0.880063 0.035000
v 0.474856 0.880063 -0.035000
v 0.389382 0.721652 0.035000
v 0.389382 0.721652 -0.035000
v 0.419053 0.796489 0.035000
v 0.419053 0.796489 -0.035000
v 0.381804 0.725690 0.035000
v 0.381804 0.725690 -0.035000
v 0.398060 0.807185 0.035000
v 0.398060 0.807185 -0.035000
v 0.362677 0.735436 0.035000
v 0.362677 0.735436 -0.035000
v 0.432873 0.901455 0.035000
v 0.432873 0.901455 -0.035000
v 0.354956 0.739193 0.035000
v 0.354956 0.739193 -0.035000
v 0.416281 0.909236 0.035000
v 0.416281 0.909236 -0.035000
v 0.341350 0.745574 0.035000
v 0.341350 0.745574 -0.035000
v 0.366063 0.822191 0.035000
v 0.366063 0.822191 -0.035000
v 0.333524 0.749107 0.035000
v 0.333524 0.749107 -0.035000
v 0.344415 0.831492 0.035000
v 0.344415 0.831492 -0.035000
v 0.313800 0.757581 0.035000
v 0.313800 0.757581 -0.035000
v 0.372988 0.927836 0.035000
v 0.372988 0.927836 -0.035000
v 0.305850 0.760826 0.035000
v 0.305850 0.760826 -0.035000
v 0.355923 0.934515 0.035000
v 0.355923 0.934515 -0.035000
v 0.291857 0.766303 0.035000
v 0.291857 0.766303 -0.035000
v 0.311505 0.844372 0.035000
v 0.311505 0.844372 -0.035000
v 0.283816 0.769317 0.035000
v 0.283816 0.769317 -0.035000
v 0.289296 0.852237 0.035000
v 0.289296 0.852237 -0.035000
v 0.263580 0.776483 0.035000
v 0.263580 0.776483 -0.035000
v 0.311506 0.950244 0.035000
v 0.311506 0.950244 -0.035000
v 0.255435 0.779200 0.035000
v 0.255435 0.779200 -0.035000
v 0.294040 0.955793 0.035000
v 0.294040 0.955793 -0.035000
v 0.241113 0.783750 0.035000
v 0.241113 0.783750 -0.035000
v 0.255614 0.862938 0.035000
v 0.255614 0.862938 -0.035000
v 0.232893 0.786232 0.035000
v 0.232893 0.786232 -0.035000
v 0.232937 0.869333 0.035000
v 0.232937 0.869333 -0.035000
v 0.212232 0.792059 0.035000
v 0.212232 0.792059 -0.035000
v 0.248690 0.968583 0.035000
v 0.248690 0.968583 -0.035000
v 0.203926 0.794238 0.035000
v 0.203926 0.794238 -0.035000
v 0.230899 0.972978 0.035000
v 0.230899 0.972978 -0.035000
v 0.189337 0.797842 0.035000
v 0.189337 0.797842 -0.035000
v 0.198628 0.877808 0.035000
v 0.198628 0.877808 -0.035000
v 0.180972 0.799781 0.035000
v 0.180972 0.799781 -0.035000
v 0.175581 0.882707 0.035000
v 0.175581 0.882707 -0.035000
v 0.159974 0.804244 0.035000
v 0.159974 0.804244 -0.035000
v 0.184809 0.982774 0.035000
v 0.184809 0.982774 -0.035000
v 0.151543 0.805875 0.035000
v 0.151543 0.805875 -0.035000
v 0.166769 0.985996 0.035000
v 0.166769 0.985996 -0.035000
v 0.136750 0.808517 0.035000
v 0.136750 0.808517 -0.035000
v 0.140791 0.888920 0.035000
v 0.140791 0.888920 -0.035000
v 0.128276 0.809904 0.035000
v 0.128276 0.809904 -0.035000
v 0.117474 0.892300 0.035000
v 0.117474 0.892300 -0.035000
v 0.107031 0.812985 0.035000
v 0.107031 0.812985 -0.035000
v 0.120137 0.992757 0.035000
v 0.120137 0.992757 -0.035000
v 0.098512 0.814061 0.035000
v 0.098512 0.814061 -0.035000
v 0.101924 0.994792 0.035000
v 0.101924 0.994792 -0.035000
v 0.083578 0.815730 0.035000
v 0.083578 0.815730 -0.035000
v 0.082351 0.896224 0.035000
v 0.082351 0.896224 -0.035000
v 0.075031 0.816560 0.035000
v 0.075031 0.816560 -0.035000
v 0.058863 0.898073 0.035000
v 0.058863 0.898073 -0.035000
v 0.053631 0.818244 0.035000
v 0.053631 0.818244 -0.035000
v 0.054950 0.998489 0.035000
v 0.054950 0.998489 -0.035000
v 0.045059 0.818761 0.035000
v 0.045059 0.818761 -0.035000
v 0.036644 0.999328 0.035000
v 0.036644 0.999328 -0.035000
v 0.030048 0.819449 0.035000
v 0.030048 0.819449 -0.035000
v 0.023559 0.899692 0.035000
v 0.023559 0.899692 -0.035000
v 0.021465 0.819719 0.035000
v 0.021465 0.819719 -0.035000
v 0.000000 0.900000 0.035000
v 0.000000 0.900000 -0.035000
v 0.000000 0.820000 0.035000
v 0.000000 0.820000 -0.035000
v -0.010472 0.999945 0.035000
v -0.010472 0.999945 -0.035000
v -0.008587 0.819955 0.035000
v -0.008587 0.819955 -0.035000
v -0.028794 0.999585 0.035000
v -0.028794 0.999585 -0.035000
v -0.023611 0.819660 0.035000
v -0.023611 0.819660 -0.035000
v -0.035334 0.899306 0.035000
v -0.035334 0.899306 -0.035000
v -0.032193 0.819368 0.035000
v -0.032193 0.819368 -0.035000
v -0.058863 0.898073 0.035000
v -0.058863 0.898073 -0.035000
v -0.053631 0.818244 0.035000
v -0.053631 0.818244 -0.035000
v -0.075849 0.997119 0.035000
v -0.075849 0.997119 -0.035000
v -0.062196 0.817638 0.035000
v -0.062196 0.817638 -0.035000
v -0.094108 0.995562 0.035000
v -0.094108 0.995562 -0.035000
v -0.077169 0.816361 0.035000
v -0.077169 0.816361 -0.035000
v -0.094076 0.895070 0.035000
v -0.094076 0.895070 -0.035000
v -0.085713 0.815508 0.035000
v -0.085713 0.815508 -0.035000
v -0.117474 0.892300 0.035000
v -0.117474 0.892300 -0.035000
v -0.107031 0.812985 0.035000
v -0.107031 0.812985 -0.035000
v -0.140901 0.990024 0.035000
v -0.140901 0.990024 -0.035000
v -0.115539 0.811819 0.035000
v -0.115539 0.811819 -0.035000
v -0.159020 0.987275 0.035000
v -0.159020 0.987275 -0.035000
v -0.130396 0.809566 0.035000
v -0.130396 0.809566 -0.035000
v -0.152415 0.887000 0.035000
v -0.152415 0.887000 -0.035000
v -0.138867 0.808156 0.035000
v -0.138867 0.808156 -0.035000
v -0.175581 0.882707 0.035000
v -0.175581 0.882707 -0.035000
v -0.159974 0.804244 0.035000
v -0.159974 0.804244 -0.035000
v -0.205350 0.978689 0.035000
v -0.205350 0.978689 -0.035000
v -0.168387 0.802525 0.035000
v -0.168387 0.802525 -0.035000
v -0.223250 0.974761 0.035000
v -0.223250 0.974761 -0.035000
v -0.183065 0.799304 0.035000
v -0.183065 0.799304 -0.035000
v -0.210101 0.875133 0.035000
v -0.210101 0.875133 -0.035000
v -0.191425 0.797343 0.035000
v -0.191425 0.797343 -0.035000
v -0.232937 0.869333 0.035000
v -0.232937 0.869333 -0.035000
v -0.212232 0.792059 0.035000
v -0.212232 0.792059 -0.035000
v -0.268920 0.963163 0.035000
v -0.268920 0.963163 -0.035000
v -0.220514 0.789793 0.035000
v -0.220514 0.789793 -0.035000
v -0.286525 0.958073 0.035000
v -0.286525 0.958073 -0.035000
v -0.234950 0.785620 0.035000
v -0.234950 0.785620 -0.035000
v -0.266887 0.859518 0.035000
v -0.266887 0.859518 -0.035000
v -0.243164 0.783116 0.035000
v -0.243164 0.783116 -0.035000
v -0.289296 0.852237 0.035000
v -0.289296 0.852237 -0.035000
v -0.263580 0.776483 0.035000
v -0.263580 0.776483 -0.035000
v -0.331338 0.943512 0.035000
v -0.331338 0.943512 -0.035000
v -0.271697 0.773680 0.035000
v -0.271697 0.773680 -0.035000
v -0.348572 0.937282 0.035000
v -0.348572 0.937282 -0.035000
v -0.285829 0.768571 0.035000
v -0.285829 0.768571 -0.035000
v -0.322531 0.840222 0.035000
v -0.322531 0.840222 -0.035000
v -0.293862 0.765536 0.035000
v -0.293862 0.765536 -0.035000
v -0.344415 0.831492 0.035000
v -0.344415 0.831492 -0.035000
v -0.313800 0.757581 0.035000
v -0.313800 0.757581 -0.035000
v -0.392337 0.919821 0.035000
v -0.392337 0.919821 -0.035000
v -0.321716 0.754254 0.035000
v -0.321716 0.754254 -0.035000
v -0.409127 0.912477 0.035000
v -0.409127 0.912477 -0.035000
v -0.335484 0.748232 0.035000
v -0.335484 0.748232 -0.035000
v -0.376794 0.817329 0.035000
v -0.376794 0.817329 -0.035000
v -0.343301 0.744677 0.035000
v -0.343301 0.744677 -0.035000
v -0.398060 0.807185 0.035000
v -0.398060 0.807185 -0.035000
v -0.362677 0.735436 0.035000
v -0.362677 0.735436 -0.035000
v -0.451656 0.892192 0.035000
v -0.451656 0.892192 -0.035000
v -0.370358 0.731597 0.035000
v -0.370358 0.731597 -0.035000
v -0.467930 0.883766 0.035000
v -0.467930 0.883766 -0.035000
v -0.383702 0.724688 0.035000
v -0.383702 0.724688 -0.035000
v -0.429443 0.790935 0.035000
v -0.429443 0.790935 -0.035000
v -0.391270 0.720630 0.035000
v -0.391270 0.720630 -0.035000
v -0.450000 0.779423 0.035000
v -0.450000 0.779423 -0.035000
v -0.410000 0.710141 0.035000
v -0.410000 0.710141 -0.035000
v -0.509041 0.860742 0.035000
v -0.509041 0.860742 -0.035000
v -0.417414 0.705808 0.035000
v -0.417414 0.705808 -0.035000
v -0.524729 0.851269 0.035000
v -0.524729 0.851269 -0.035000
v -0.430278 0.698041 0.035000
v -0.430278 0.698041 -0.035000
v -0.480253 0.761155 0.035000
v -0.480253 0.761155 -0.035000
v -0.437564 0.693497 0.035000
v -0.437564 0.693497 -0.035000
v -0.500013 0.748323 0.035000
v -0.500013 0.748323 -0.035000
v -0.455568 0.681805 0.035000
v -0.455568 0.681805 -0.035000
v -0.564247 0.825606 0.035000
v -0.564247 0.825606 -0.035000
v -0.462682 0.676997 0.035000
v -0.462682 0.676997 -0.035000
v -0.579281 0.815128 0.035000
v -0.579281 0.815128 -0.035000
v -0.475011 0.668405 0.035000
v -0.475011 0.668405 -0.035000
v -0.529007 0.728115 0.035000
v -0.529007 0.728115 -0.035000
v -0.481984 0.663394 0.035000
v -0.481984 0.663394 -0.035000
v -0.547885 0.714018 0.035000
v -0.547885 0.714018 -0.035000
v -0.499184 0.650550 0.035000
v -0.499184 0.650550 -0.035000
v -0.617036 0.786935 0.035000
v -0.617036 0.786935 -0.035000
v -0.505969 0.645287 0.035000
v -0.505969 0.645287 -0.035000
v -0.631353 0.775496 0.035000
v -0.631353 0.775496 -0.035000
v -0.517709 0.635907 0.035000
v -0.517709 0.635907 -0.035000
v -0.575495 0.691958 0.035000
v -0.575495 0.691958 -0.035000
v -0.524340 0.630450 0.035000
v -0.524340 0.630450 -0.035000
v -0.593411 0.676656 0.035000
v -0.593411 0.676656 -0.035000
v -0.540664 0.616509 0.035000
v -0.540664 0.616509 -0.035000
v -0.667183 0.744894 0.035000
v -0.667183 0.744894 -0.035000
v -0.547090 0.610813 0.035000
v -0.547090 0.610813 -0.035000
v -0.680721 0.732543 0.035000
v -0.680721 0.732543 -0.035000
v -0.558191 0.600685 0.035000
v -0.558191 0.600685 -0.035000
v -0.619519 0.652837 0.035000
v -0.619519 0.652837 -0.035000
v -0.564451 0.594807 0.035000
v -0.564451 0.594807 -0.035000
v -0.636396 0.636396 0.035000
v -0.636396 0.636396 -0.035000
v -0.579828 0.579828 0.035000
v -0.579828 0.579828 -0.035000
v -0.714473 0.699663 0.035000
v -0.714473 0.699663 -0.035000
v -0.585868 0.573724 0.035000
v -0.585868 0.573724 -0.035000
v -0.727174 0.686453 0.035000
v -0.727174 0.686453 -0.035000
v -0.596283 0.562892 0.035000
v -0.596283 0.562892 -0.035000
v -0.660890 0.610921 0.035000
v -0.660890 0.610921 -0.035000
v -0.602144 0.556617 0.035000
v -0.602144 0.556617 -0.035000
v -0.676656 0.593411 0.035000
v -0.676656 0.593411 -0.035000
v -0.616509 0.540664 0.035000
v -0.616509 0.540664 -0.035000
v -0.758703 0.651437 0.035000
v -0.758703 0.651437 -0.035000
v -0.622137 0.534178 0.035000
v -0.622137 0.534178 -0.035000
v -0.770513 0.637424 0.035000
v -0.770513 0.637424 -0.035000
v -0.631821 0.522688 0.035000
v -0.631821 0.522688 -0.035000
v -0.699431 0.566388 0.035000
v -0.699431 0.566388 -0.035000
v -0.637260 0.516043 0.035000
v -0.637260 0.516043 -0.035000
v -0.714018 0.547885 0.035000
v -0.714018 0.547885 -0.035000
v -0.650550 0.499184 0.035000
v -0.650550 0.499184 -0.035000
v -0.799685 0.600420 0.035000
v -0.799685 0.600420 -0.035000
v -0.655741 0.492345 0.035000
v -0.655741 0.492345 -0.035000
v -0.810553 0.585665 0.035000
v -0.810553 0.585665 -0.035000
v -0.664653 0.480245 0.035000
v -0.664653 0.480245 -0.035000
v -0.734977 0.519431 0.035000
v -0.734977 0.519431 -0.035000
v -0.669646 0.473259 0.035000
v -0.669646 0.473259 -0.035000
v -0.748323 0.500013 0.035000
v -0.748323 0.500013 -0.035000
v -0.681805 0.455568 0.035000
v -0.681805 0.455568 -0.035000
v -0.837242 0.546833 0.035000
v -0.837242 0.546833 -0.035000
v -0.686538 0.448403 0.035000
v -0.686538 0.448403 -0.035000
v -0.847122 0.531399 0.035000
v -0.847122 0.531399 -0.035000
v -0.694640 0.435747 0.035000
v -0.694640 0.435747 -0.035000
v -0.767376 0.470249 0.035000
v -0.767376 0.470249 -0.035000
v -0.699165 0.428449 0.035000
v -0.699165 0.428449 -0.035000
v -0.779423 0.450000 0.035000
v -0.779423 0.450000 -0.035000
v -0.710141 0.410000 0.035000
v -0.710141 0.410000 -0.035000
v -0.871214 0.490904 0.035000
v -0.871214 0.490904 -0.035000
v -0.714395 0.402541 0.035000
v -0.714395 0.402541 -0.035000
v -0.880063 0.474856 0.035000
v -0.880063 0.474856 -0.035000
v -0.721652 0.389382 0.035000
v -0.721652 0.389382 -0.035000
v -0.796489 0.419053 0.035000
v -0.796489 0.419053 -0.035000
v -0.725690 0.381804 0.035000
v -0.725690 0.381804 -0.035000
v -0.807185 0.398060 0.035000
v -0.807185 0.398060 -0.035000
v -0.735436 0.362677 0.035000
v -0.735436 0.362677 -0.035000
v -0.901455 0.432873 0.035000
v -0.901455 0.432873 -0.035000
v -0.739193 0.354956 0.035000
v -0.739193 0.354956 -0.035000
v -0.909236 0.416281 0.035000
v -0.909236 0.416281 -0.035000
v -0.745574 0.341350 0.035000
v -0.745574 0.341350 -0.035000
v -0.822191 0.366063 0.035000
v -0.822191 0.366063 -0.035000
v -0.749107 0.333524 0.035000
v -0.749107 0.333524 -0.035000
v -0.831492 0.344415 0.035000
v -0.831492 0.344415 -0.035000
v -0.757581 0.313800 0.035000
v -0.757581 0.313800 -0.035000
v -0.927836 0.372988 0.035000
v -0.927836 0.372988 -0.035000
v -0.760826 0.305850 0.035000
v -0.760826 0.305850 -0.035000
v -0.934515 0.355923 0.035000
v -0.934515 0.355923 -0.035000
v -0.766303 0.291857 0.035000
v -0.766303 0.291857 -0.035000
v -0.844372 0.311505 0.035000
v -0.844372 0.311505 -0.035000
v -0.769317 0.283816 0.035000
v -0.769317 0.283816 -0.035000
v -0.852237 0.289296 0.035000
v -0.852237 0.289296 -0.035000
v -0.776483 0.263580 0.035000
v -0.776483 0.263580 -0.035000
v -0.950244 0.311506 0.035000
v -0.950244 0.311506 -0.035000
v -0.779200 0.255435 0.035000
v -0.779200 0.255435 -0.035000
v -0.955793 0.294040 0.035000
v -0.955793 0.294040 -0.035000
v -0.783750 0.241113 0.035000
v -0.783750 0.241113 -0.035000
v -0.862938 0.255614 0.035000
v -0.862938 0.255614 -0.035000
v -0.786232 0.232893 0.035000
v -0.786232 0.232893 -0.035000
v -0.869333 0.232937 0.035000
v -0.869333 0.232937 -0.035000
v -0.792059 0.212232 0.035000
v -0.792059 0.212232 -0.035000
v -0.968583 0.248690 0.035000
v -0.968583 0.248690 -0.035000
v -0.794238 0.203926 0.035000
v -0.794238 0.203926 -0.035000
v -0.972978 0.230899 0.035000
v -0.972978 0.230899 -0.035000
v -0.797842 0.189337 0.035000
v -0.797842 0.189337 -0.035000
v -0.877808 0.198628 0.035000
v -0.877808 0.198628 -0.035000
v -0.799781 0.180972 0.035000
v -0.799781 0.180972 -0.035000
v -0.882707 0.175581 0.035000
v -0.882707 0.175581 -0.035000
v -0.804244 0.159974 0.035000
v -0.804244 0.159974 -0.035000
v -0.982774 0.184809 0.035000
v -0.982774 0.184809 -0.035000
v -0.805875 0.151543 0.035000
v -0.805875 0.151543 -0.035000
v -0.985996 0.166769 0.035000
v -0.985996 0.166769 -0.035000
v -0.808517 0.136750 0.035000
v -0.808517 0.136750 -0.035000
v -0.888920 0.140791 0.035000
v -0.888920 0.140791 -0.035000
v -0.809904 0.128276 0.035000
v -0.809904 0.128276 -0.035000
v -0.892300 0.117474 0.035000
v -0.892300 0.117474 -0.035000
v -0.812985 0.107031 0.035000
v -0.812985 0.107031 -0.035000
v -0.992757 0.120137 0.035000
v -0.992757 0.120137 -0.035000
v -0.814061 0.098512 0.035000
v -0.814061 0.098512 -0.035000
v -0.994792 0.101924 0.035000
v -0.994792 0.101924 -0.035000
v -0.815730 0.083578 0.035000
v -0.815730 0.083578 -0.035000
v -0.896224 0.082351 0.035000
v -0.896224 0.082351 -0.035000
v -0.816560 0.075031 0.035000
v -0.816560 0.075031 -0.035000
v -0.898073 0.058863 0.035000
v -0.898073 0.058863 -0.035000
v -0.818244 0.053631 0.035000
v -0.818244 0.053631 -0.035000
v -0.998489 0.054950 0.035000
v -0.998489 0.054950 -0.035000
v -0.818761 0.045059 0.035000
v -0.818761 0.045059 -0.035000
v -0.999328 0.036644 0.035000
v -0.999328 0.036644 -0.035000
v -0.819449 0.030048 0.035000
v -0.819449 0.030048 -0.035000
v -0.899692 0.023559 0.035000
v -0.899692 0.023559 -0.035000
v -0.819719 0.021465 0.035000
v -0.819719 0.021465 -0.035000
v -0.900000 0.000000 0.035000
v -0.900000 0.000000 -0.035000
v -0.820000 0.000000 0.035000
v -0.820000 0.000000 -0.035000
v -0.999945 -0.010472 0.035000
v -0.999945 -0.010472 -0.035000
v -0.819955 -0.008587 0.035000
v -0.819955 -0.008587 -0.035000
v -0.999585 -0.028794 0.035000
v -0.999585 -0.028794 -0.035000
v -0.819660 -0.023611 0.035000
v -0.819660 -0.023611 -0.035000
v -0.899306 -0.035334 0.035000
v -0.899306 -0.035334 -0.035000
v -0.819368 -0.032193 0.035000
v -0.819368 -0.032193 -0.035000
v -0.898073 -0.058863 0.035000
v -0.898073 -0.058863 -0.035000
v -0.818244 -0.053631 0.035000
v -0.818244 -0.053631 -0.035000
v -0.997119 -0.075849 0.035000
v -0.997119 -0.075849 -0.035000
v -0.817638 -0.062196 0.035000
v -0.817638 -0.062196 -0.035000
v -0.995562 -0.094108 0.035000
v -0.995562 -0.094108 -0.035000
v -0.816361 -0.077169 0.035000
v -0.816361 -0.077169 -0.035000
v -0.895070 -0.094076 0.035000
v -0.895070 -0.094076 -0.035000
v -0.815508 -0.085713 0.035000
v -0.815508 -0.085713 -0.035000
v -0.892300 -0.117474 0.035000
v -0.892300 -0.117474 -0.035000
v -0.812985 -0.107031 0.035000
v -0.812985 -0.107031 -0.035000
v -0.990024 -0.140901 0.035000
v -0.990024 -0.140901 -0.035000
v -0.811819 -0.115539 0.035000
v -0.811819 -0.115539 -0.035000
v -0.987275 -0.159020 0.035000
v -0.987275 -0.159020 -0.035000
v -0.809566 -0.130396 0.035000
v -0.809566 -0.130396 -0.035000
v -0.887000 -0.152415 0.035000
v -0.887000 -0.152415 -0.035000
v -0.808156 -0.138867 0.035000
v -0.808156 -0.138867 -0.035000
v -0.882707 -0.175581 0.035000
v -0.882707 -0.175581 -0.035000
v -0.804244 -0.159974 0.035000
v -0.804244 -0.159974 -0.035000
v -0.978689 -0.205350 0.035000
v -0.978689 -0.205350 -0.035000
v -0.802525 -0.168387 0.035000
v -0.802525 -0.168387 -0.035000
v -0.974761 -0.223250 0.035000
v -0.974761 -0.223250 -0.035000
v -0.799304 -0.183065 0.035000
v -0.799304 -0.183065 -0.035000
v -0.875133 -0.210101 0.035000
v -0.875133 -0.210101 -0.035000
v -0.797343 -0.191425 0.035000
v -0.797343 -0.191425 -0.035000
v -0.869333 -0.232937 0.035000
v -0.869333 -0.232937 -0.035000
v -0.792059 -0.212232 0.035000
v -0.792059 -0.212232 -0.035000
v -0.963163 -0.268920 0.035000
v -0.963163 -0.268920 -0.035000
v -0.789793 -0.220514 0.035000
v -0.789793 -0.220514 -0.035000
v -0.958073 -0.286525 0.035000
v -0.958073 -0.286525 -0.035000
v -0.785620 -0.234950 0.035000
v -0.785620 -0.234950 -0.035000
v -0.859518 -0.266887 0.035000
v -0.859518 -0.266887 -0.035000
v -0.783116 -0.243164 0.035000
v -0.783116 -0.243164 -0.035000
v -0.852237 -0.289296 0.035000
v -0.852237 -0.289296 -0.035000
v -0.776483 -0.263580 0.035000
v -0.776483 -0.263580 -0.035000
v -0.943512 -0.331338 0.035000
v -0.943512 -0.331338 -0.035000
v -0.773680 -0.271697 0.035000
v -0.773680 -0.271697 -0.035000
v -0.937282 -0.348572 0.035000
v -0.937282 -0.348572 -0.035000
v -0.768571 -0.285829 0.035000
v -0.768571 -0.285829 -0.035000
v -0.840222 -0.322531 0.035000
v -0.840222 -0.322531 -0.035000
v -0.765536 -0.293862 0.035000
v -0.765536 -0.293862 -0.035000
v -0.831492 -0.344415 0.035000
v -0.831492 -0.344415 -0.035000
v -0.757581 -0.313800 0.035000
v -0.757581 -0.313800 -0.035000
v -0.919821 -0.392337 0.035000
v -0.919821 -0.392337 -0.035000
v -0.754254 -0.321716 0.035000
v -0.754254 -0.321716 -0.035000
v -0.912477 -0.409127 0.035000
v -0.912477 -0.409127 -0.035000
v -0.748232 -0.335484 0.035000
v -0.748232 -0.335484 -0.035000
v -0.817329 -0.376794 0.035000
v -0.817329 -0.376794 -0.035000
v -0.744677 -0.343301 0.035000
v -0.744677 -0.343301 -0.035000
v -0.807185 -0.398060 0.035000
v -0.807185 -0.398060 -0.035000
v -0.735436 -0.362677 0.035000
v -0.735436 -0.362677 -0.035000
v -0.892192 -0.451656 0.035000
v -0.892192 -0.451656 -0.035000
v -0.731597 -0.370358 0.035000
v -0.731597 -0.370358 -0.035000
v -0.883766 -0.467930 0.035000
v -0.883766 -0.467930 -0.035000
v -0.724688 -0.383702 0.035000
v -0.724688 -0.383702 -0.035000
v -0.790935 -0.429443 0.035000
v -0.790935 -0.429443 -0.035000
v -0.720630 -0.391270 0.035000
v -0.720630 -0.391270 -0.035000
v -0.779423 -0.450000 0.035000
v -0.779423 -0.450000 -0.035000
v -0.710141 -0.410000 0.035000
v -0.710141 -0.410000 -0.035000
v -0.860742 -0.509041 0.035000
v -0.860742 -0.509041 -0.035000
v -0.705808 -0.417414 0.035000
v -0.705808 -0.417414 -0.035000
v -0.851269 -0.524729 0.035000
v -0.851269 -0.524729 -0.035000
v -0.698041 -0.430278 0.035000
v -0.698041 -0.430278 -0.035000
v -0.761155 -0.480253 0.035000
v -0.761155 -0.480253 -0.035000
v -0.693497 -0.437564 0.035000
v -0.693497 -0.437564 -0.035000
v -0.748323 -0.500013 0.035000
v -0.748323 -0.500013 -0.035000
v -0.681805 -0.455568 0.035000
v -0.681805 -0.455568 -0.035000
v -0.825606 -0.564247 0.035000
v -0.825606 -0.564247 -0.035000
v -0.676997 -0.462682 0.035000
v -0.676997 -0.462682 -0.035000
v -0.815128 -0.579281 0.035000
v -0.815128 -0.579281 -0.035000
v -0.668405 -0.475011 0.035000
v -0.668405 -0.475011 -0.035000
v -0.728115 -0.529007 0.035000
v -0.728115 -0.529007 -0.035000
v -0.663394 -0.481984 0.035000
v -0.663394 -0.481984 -0.035000
v -0.714018 -0.547885 0.035000
v -0.714018 -0.547885 -0.035000
v -0.650550 -0.499184 0.035000
v -0.650550 -0.499184 -0.035000
v -0.786935 -0.617036 0.035000
v -0.786935 -0.617036 -0.035000
v -0.645287 -0.505969 0.035000
v -0.645287 -0.505969 -0.035000
v -0.775496 -0.631353 0.035000
v -0.775496 -0.631353 -0.035000
v -0.635907 -0.517709 0.035000
v -0.635907 -0.517709 -0.035000
v -0.691958 -0.575495 0.035000
v -0.691958 -0.575495 -0.035000
v -0.630450 -0.524340 0.035000
v -0.630450 -0.524340 -0.035000
v -0.676656 -0.593411 0.035000
v -0.676656 -0.593411 -0.035000
v -0.616509 -0.540664 0.035000
v -0.616509 -0.540664 -0.035000
v -0.744894 -0.667183 0.035000
v -0.744894 -0.667183 -0.035000
v -0.610813 -0.547090 0.035000
v -0.610813 -0.547090 -0.035000
v -0.732543 -0.680721 0.035000
v -0.732543 -0.680721 -0.035000
v -0.600685 -0.558191 0.035000
v -0.600685 -0.558191 -0.035000
v -0.652837 -0.619519 0.035000
v -0.652837 -0.619519 -0.035000
v -0.594807 -0.564451 0.035000
v -0.594807 -0.564451 -0.035000
v -0.636396 -0.636396 0.035000
v -0.636396 -0.636396 -0.035000
v -0.579828 -0.579828 0.035000
v -0.579828 -0.579828 -0.035000
v -0.699663 -0.714473 0.035000
v -0.699663 -0.714473 -0.035000
v -0.573724 -0.585868 0.035000
v -0.573724 -0.585868 -0.035000
v -0.686453 -0.727174 0.035000
v -0.686453 -0.727174 -0.035000
v -0.562892 -0.596283 0.035000
v -0.562892 -0.596283 -0.035000
v -0.610921 -0.660890 0.035000
v -0.610921 -0.660890 -0.035000
v -0.556617 -0.602144 0.035000
v -0.556617 -0.602144 -0.035000
v -0.593411 -0.676656 0.035000
v -0.593411 -0.676656 -0.035000
v -0.540664 -0.616509 0.035000
v -0.540664 -0.616509 -0.035000
v -0.651437 -0.758703 0.035000
v -0.651437 -0.758703 -0.035000
v -0.534178 -0.622137 0.035000
v -0.534178 -0.622137 -0.035000
v -0.637424 -0.770513 0.035000
v -0.637424 -0.770513 -0.035000
v -0.522688 -0.631821 0.035000
v -0.522688 -0.631821 -0.035000
v -0.566388 -0.699431 0.035000
v -0.566388 -0.699431 -0.035000
v -0.516043 -0.637260 0.035000
v -0.516043 -0.637260 -0.035000
v -0.547885 -0.714018 0.035000
v -0.547885 -0.714018 -0.035000
v -0.499184 -0.650550 0.035000
v -0.499184 -0.650550 -0.035000
v -0.600420 -0.799685 0.035000
v -0.600420 -0.799685 -0.035000
v -0.492345 -0.655741 0.035000
v -0.492345 -0.655741 -0.035000
v -0.585665 -0.810553 0.035000
v -0.585665 -0.810553 -0.035000
v -0.480245 -0.664653 0.035000
v -0.480245 -0.664653 -0.035000
v -0.519431 -0.734977 0.035000
v -0.519431 -0.734977 -0.035000
v -0.473259 -0.669646 0.035000
v -0.473259 -0.669646 -0.035000
v -0.500013 -0.748323 0.035000
v -0.500013 -0.748323 -0.035000
v -0.455568 -0.681805 0.035000
v -0.455568 -0.681805 -0.035000
v -0.546833 -0.837242 0.035000
v -0.546833 -0.837242 -0.035000
v -0.448403 -0.686538 0.035000
v -0.448403 -0.686538 -0.035000
v -0.531399 -0.847122 0.035000
v -0.531399 -0.847122 -0.035000
v -0.435747 -0.694640 0.035000
v -0.435747 -0.694640 -0.035000
v -0.470249 -0.767376 0.035000
v -0.470249 -0.767376 -0.035000
v -0.428449 -0.699165 0.035000
v -0.428449 -0.699165 -0.035000
v -0.450000 -0.779423 0.035000
v -0.450000 -0.779423 -0.035000
v -0.410000 -0.710141 0.035000
v -0.410000 -0.710141 -0.035000
v -0.490904 -0.871214 0.035000
v -0.490904 -0.871214 -0.035000
v -0.402541 -0.714395 0.035000
v -0.402541 -0.714395 -0.035000
v -0.474856 -0.880063 0.035000
v -0.474856 -0.880063 -0.035000
v -0.389382 -0.721652 0.035000
v -0.389382 -0.721652 -0.035000
v -0.419053 -0.796489 0.035000
v -0.419053 -0.796489 -0.035000
v -0.381804 -0.725690 0.035000
v -0.381804 -0.725690 -0.035000
v -0.398060 -0.807185 0.035000
v -0.398060 -0.807185 -0.035000
v -0.362677 -0.735436 0.035000
v -0.362677 -0.735436 -0.035000
v -0.432873 -0.901455 0.035000
v -0.432873 -0.901455 -0.035000
v -0.354956 -0.739193 0.035000
v -0.354956 -0.739193 -0.035000
v -0.416281 -0.909236 0.035000
v -0.416281 -0.909236 -0.035000
v -0.341350 -0.745574 0.035000
v -0.341350 -0.745574 -0.035000
v -0.366063 -0.822191 0.035000
v -0.366063 -0.822191 -0.035000
v -0.333524 -0.749107 0.035000
v -0.333524 -0.749107 -0.035000
v -0.344415 -0.831492 0.035000
v -0.344415 -0.831492 -0.035000
v -0.313800 -0.757581 0.035000
v -0.313800 -0.757581 -0.035000
v -0.372988 -0.927836 0.035000
v -0.372988 -0.927836 -0.035000
v -0.305850 -0.760826 0.035000
v -0.305850 -0.760826 -0.035000
v -0.355923 -0.934515 0.035000
v -0.355923 -0.934515 -0.035000
v -0.291857 -0.766303 0.035000
v -0.291857 -0.766303 -0.035000
v -0.311505 -0.844372 0.035000
v -0.311505 -0.844372 -0.035000
v -0.283816 -0.769317 0.035000
v -0.283816 -0.769317 -0.035000
v -0.289296 -0.852237 0.035000
v -0.289296 -0.852237 -0.035000
v -0.263580 -0.776483 0.035000
v -0.263580 -0.776483 -0.035000
v -0.311506 -0.950244 0.035000
v -0.311506 -0.950244 -0.035000
v -0.255435 -0.779200 0.035000
v -0.255435 -0.779200 -0.035000
v -0.294040 -0.955793 0.035000
v -0.294040 -0.955793 -0.035000
v -0.241113 -0.783750 0.035000
v -0.241113 -0.783750 -0.035000
v -0.255614 -0.862938 0.035000
v -0.255614 -0.862938 -0.035000
v -0.232893 -0.786232 0.035000
v -0.232893 -0.786232 -0.035000
v -0.232937 -0.869333 0.035000
v -0.232937 -0.869333 -0.035000
v -0.212232 -0.792059 0.035000
v -0.212232 -0.792059 -0.035000
v -0.248690 -0.968583 0.035000
v -0.248690 -0.968583 -0.035000
v -0.203926 -0.794238 0.035000
v -0.203926 -0.794238 -0.035000
v -0.230899 -0.972978 0.035000
v -0.230899 -0.972978 -0.035000
v -0.189337 -0.797842 0.035000
v -0.189337 -0.797842 -0.035000
v -0.198628 -0.877808 0.035000
v -0.198628 -0.877808 -0.035000
v -0.180972 -0.799781 0.035000
v -0.180972 -0.799781 -0.035000
v -0.175581 -0.882707 0.035000
v -0.175581 -0.882707 -0.035000
v -0.159974 -0.804244 0.035000
v -0.159974 -0.804244 -0.035000
v -0.184809 -0.982774 0.035000
v -0.184809 -0.982774 -0.035000
v -0.151543 -0.805875 0.035000
v -0.151543 -0.805875 -0.035000
v -0.166769 -0.985996 0.035000
v -0.166769 -0.985996 -0.035000
v -0.136750 -0.808517 0.035000
v -0.136750 -0.808517 -0.035000
v -0.140791 -0.888920 0.035000
v -0.140791 -0.888920 -0.035000
v -0.128276 -0.809904 0.035000
v -0.128276 -0.809904 -0.035000
v -0.117474 -0.892300 0.035000
v -0.117474 -0.892300 -0.035000
v -0.107031 -0.812985 0.035000
v -0.107031 -0.812985 -0.035000
v -0.120137 -0.992757 0.035000
v -0.120137 -0.992757 -0.035000
v -0.098512 -0.814061 0.035000
v -0.098512 -0.814061 -0.035000
v -0.101924 -0.994792 0.035000
v -0.101924 -0.994792 -0.035000
v -0.083578 -0.815730 0.035000
v -0.083578 -0.815730 -0.035000
v -0.082351 -0.896224 0.035000
v -0.082351 -0.896224 -0.035000
v -0.075031 -0.816560 0.035000
v -0.075031 -0.816560 -0.035000
v -0.058863 -0.898073 0.035000
v -0.058863 -0.898073 -0.035000
v -0.053631 -0.818244 0.035000
v -0.053631 -0.818244 -0.035000
v -0.054950 -0.998489 0.035000
v -0.054950 -0.998489 -0.035000
v -0.045059 -0.818761 0.035000
v -0.045059 -0.818761 -0.035000
v -0.036644 -0.999328 0.035000
v -0.036644 -0.999328 -0.035000
v -0.030048 -0.819449 0.035000
v -0.030048 -0.819449 -0.035000
v -0.023559 -0.899692 0.035000
v -0.023559 -0.899692 -0.035000
v -0.021465 -0.819719 0.035000
v -0.021465 -0.819719 -0.035000
v 0.000000 -0.900000 0.035000
v 0.000000 -0.900000 -0.035000
v 0.000000 -0.820000 0.035000
v 0.000000 -0.820000 -0.035000
v 0.010472 -0.999945 0.035000
v 0.010472 -0.999945 -0.035000
v 0.008587 -0.819955 0.035000
v 0.008587 -0.819955 -0.035000
v 0.028794 -0.999585 0.035000
v 0.028794 -0.999585 -0.035000
v 0.023611 -0.819660 0.035000
v 0.023611 -0.819660 -0.035000
v 0.035334 -0.899306 0.035000
v 0.035334 -0.899306 -0.035000
v 0.032193 -0.819368 0.035000
v 0.032193 -0.819368 -0.035000
v 0.058863 -0.898073 0.035000
v 0.058863 -0.898073 -0.035000
v 0.053631 -0.818244 0.035000
v 0.053631 -0.818244 -0.035000
v 0.075849 -0.997119 0.035000
v 0.075849 -0.997119 -0.035000
v 0.062196 -0.817638 0.035000
v 0.062196 -0.817638 -0.035000
v 0.094108 -0.995562 0.035000
v 0.094108 -0.995562 -0.035000
v 0.077169 -0.816361 0.035000
v 0.077169 -0.816361 -0.035000
v 0.094076 -0.895070 0.035000
v 0.094076 -0.895070 -0.035000
v 0.085713 -0.815508 0.035000
v 0.085713 -0.815508 -0.035000
v 0.117474 -0.892300 0.035000
v 0.117474 -0.892300 -0.035000
v 0.107031 -0.812985 0.035000
v 0.107031 -0.812985 -0.035000
v 0.140901 -0.990024 0.035000
v 0.140901 -0.990024 -0.035000
v 0.115539 -0.811819 0.035000
v 0.115539 -0.811819 -0.035000
v 0.159020 -0.987275 0.035000
v 0.159020 -0.987275 -0.035000
v 0.130396 -0.809566 0.035000
v 0.130396 -0.809566 -0.035000
v 0.152415 -0.887000 0.035000
v 0.152415 -0.887000 -0.035000
v 0.138867 -0.808156 0.035000
v 0.138867 -0.808156 -0.035000
v 0.175581 -0.882707 0.035000
v 0.175581 -0.882707 -0.035000
v 0.159974 -0.804244 0.035000
v 0.159974 -0.804244 -0.035000
v 0.205350 -0.978689 0.035000
v 0.205350 -0.978689 -0.035000
v 0.168387 -0.802525 0.035000
v 0.168387 -0.802525 -0.035000
v 0.223250 -0.974761 0.035000
v 0.223250 -0.974761 -0.035000
v 0.183065 -0.799304 0.035000
v 0.183065 -0.799304 -0.035000
v 0.210101 -0.875133 0.035000
v 0.210101 -0.875133 -0.035000
v 0.191425 -0.797343 0.035000
v 0.191425 -0.797343 -0.035000
v 0.232937 -0.869333 0.035000
v 0.232937 -0.869333 -0.035000
v 0.212232 -0.792059 0.035000
v 0.212232 -0.792059 -0.035000
v 0.268920 -0.963163 0.035000
v 0.268920 -0.963163 -0.035000
v 0.220514 -0.789793 0.035000
v 0.220514 -0.789793 -0.035000
v 0.286525 -0.958073 0.035000
v 0.286525 -0.958073 -0.035000
v 0.234950 -0.785620 0.035000
v 0.234950 -0.785620 -0.035000
v 0.266887 -0.859518 0.035000
v 0.266887 -0.859518 -0.035000
v 0.243164 -0.783116 0.035000
v 0.243164 -0.783116 -0.035000
v 0.289296 -0.852237 0.035000
v 0.289296 -0.852237 -0.035000
v 0.263580 -0.776483 0.035000
v 0.263580 -0.776483 -0.035000
v 0.331338 -0.943512 0.035000
v 0.331338 -0.943512 -0.035000
v 0.271697 -0.773680 0.035000
v 0.271697 -0.773680 -0.035000
v 0.348572 -0.937282 0.035000
v 0.348572 -0.937282 -0.035000
v 0.285829 -0.768571 0.035000
v 0.285829 -0.768571 -0.035000
v 0.322531 -0.840222 0.035000
v 0.322531 -0.840222 -0.035000
v 0.293862 -0.765536 0.035000
v 0.293862 -0.765536 -0.035000
v 0.344415 -0.831492 0.035000
v 0.344415 -0.831492 -0.035000
v 0.313800 -0.757581 0.035000
v 0.313800 -0.757581 -0.035000
v 0.392337 -0.919821 0.035000
v 0.392337 -0.919821 -0.035000
v 0.321716 -0.754254 0.035000
v 0.321716 -0.754254 -0.035000
v 0.409127 -0.912477 0.035000
v 0.409127 -0.912477 -0.035000
v 0.335484 -0.748232 0.035000
v 0.335484 -0.748232 -0.035000
v 0.376794 -0.817329 0.035000
v 0.376794 -0.817329 -0.035000
v 0.343301 -0.744677 0.035000
v 0.343301 -0.744677 -0.035000
v 0.398060 -0.807185 0.035000
v 0.398060 -0.807185 -0.035000
v 0.362677 -0.735436 0.035000
v 0.362677 -0.735436 -0.035000
v 0.451656 -0.892192 0.035000
v 0.451656 -0.892192 -0.035000
v 0.370358 -0.731597 0.035000
v 0.370358 -0.731597 -0.035000
v 0.467930 -0.883766 0.035000
v 0.467930 -0.883766 -0.035000
v 0.383702 -0.724688 0.035000
v 0.383702 -0.724688 -0.035000
v 0.429443 -0.790935 0.035000
v 0.429443 -0.790935 -0.035000
v 0.391270 -0.720630 0.035000
v 0.391270 -0.720630 -0.035000
v 0.450000 -0.779423 0.035000
v 0.450000 -0.779423 -0.035000
v 0.410000 -0.710141 0.035000
v 0.410000 -0.710141 -0.035000
v 0.509041 -0.860742 0.035000
v 0.509041 -0.860742 -0.035000
v 0.417414 -0.705808 0.035000
v 0.417414 -0.705808 -0.035000
v 0.524729 -0.851269 0.035000
v 0.524729 -0.851269 -0.035000
v 0.430278 -0.698041 0.035000
v 0.430278 -0.698041 -0.035000
v 0.480253 -0.761155 0.035000
v 0.480253 -0.761155 -0.035000
v 0.437564 -0.693497 0.035000
v 0.437564 -0.693497 -0.035000
v 0.500013 -0.748323 0.035000
v 0.500013 -0.748323 -0.035000
v 0.455568 -0.681805 0.035000
v 0.455568 -0.681805 -0.035000
v 0.564247 -0.825606 0.035000
v 0.564247 -0.825606 -0.035000
v 0.462682 -0.676997 0.035000
v 0.462682 -0.676997 -0.035000
v 0.579281 -0.815128 0.035000
v 0.579281 -0.815128 -0.035000
v 0.475011 -0.668405 0.035000
v 0.475011 -0.668405 -0.035000
v 0.529007 -0.728115 0.035000
v 0.529007 -0.728115 -0.035000
v 0.481984 -0.663394 0.035000
v 0.481984 -0.663394 -0.035000
v 0.547885 -0.714018 0.035000
v 0.547885 -0.714018 -0.035000
v 0.499184 -0.650550 0.035000
v 0.499184 -0.650550 -0.035000
v 0.617036 -0.786935 0.035000
v 0.617036 -0.786935 -0.035000
v 0.505969 -0.645287 0.035000
v 0.505969 -0.645287 -0.035000
v 0.631353 -0.775496 0.035000
v 0.631353 -0.775496 -0.035000
v 0.517709 -0.635907 0.035000
v 0.517709 -0.635907 -0.035000
v 0.575495 -0.691958 0.035000
v 0.575495 -0.691958 -0.035000
v 0.524340 -0.630450 0.035000
v 0.524340 -0.630450 -0.035000
v 0.593411 -0.676656 0.035000
v 0.593411 -0.676656 -0.035000
v 0.540664 -0.616509 0.035000
v 0.540664 -0.616509 -0.035000
v 0.667183 -0.744894 0.035000
v 0.667183 -0.744894 -0.035000
v 0.547090 -0.610813 0.035000
v 0.547090 -0.610813 -0.035000
v 0.680721 -0.732543 0.035000
v 0.680721 -0.732543 -0.035000
v 0.558191 -0.600685 0.035000
v 0.558191 -0.600685 -0.035000
v 0.619519 -0.652837 0.035000
v 0.619519 -0.652837 -0.035000
v 0.564451 -0.594807 0.035000
v 0.564451 -0.594807 -0.035000
v 0.636396 -0.636396 0.035000
v 0.636396 -0.636396 -0.035000
v 0.579828 -0.579828 0.035000
v 0.579828 -0.579828 -0.035000
v 0.714473 -0.699663 0.035000
v 0.714473 -0.699663 -0.035000
v 0.585868 -0.573724 0.035000
v 0.585868 -0.573724 -0.035000
v 0.727174 -0.686453 0.035000
v 0.727174 -0.686453 -0.035000
v 0.596283 -0.562892 0.035000
v 0.596283 -0.562892 -0.035000
v 0.660890 -0.610921 0.035000
v 0.660890 -0.610921 -0.035000
v 0.602144 -0.556617 0.035000
v 0.602144 -0.556617 -0.035000
v 0.676656 -0.593411 0.035000
v 0.676656 -0.593411 -0.035000
v 0.616509 -0.540664 0.035000
v 0.616509 -0.540664 -0.035000
v 0.758703 -0.651437 0.035000
v 0.758703 -0.651437 -0.035000
v 0.622137 -0.534178 0.035000
v 0.622137 -0.534178 -0.035000
v 0.770513 -0.637424 0.035000
v 0.770513 -0.637424 -0.035000
v 0.631821 -0.522688 0.035000
v 0.631821 -0.522688 -0.035000
v 0.699431 -0.566388 0.035000
v 0.699431 -0.566388 -0.035000
v 0.637260 -0.516043 0.035000
v 0.637260 -0.516043 -0.035000
v 0.714018 -0.547885 0.035000
v 0.714018 -0.547885 -0.035000
v 0.650550 -0.499184 0.035000
v 0.650550 -0.499184 -0.035000
v 0.799685 -0.600420 0.035000
v 0.799685 -0.600420 -0.035000
v 0.655741 -0.492345 0.035000
v 0.655741 -0.492345 -0.035000
v 0.810553 -0.585665 0.035000
v 0.810553 -0.585665 -0.035000
v 0.664653 -0.480245 0.035000
v 0.664653 -0.480245 -0.035000
v 0.734977 -0.519431 0.035000
v 0.734977 -0.519431 -0.035000
v 0.669646 -0.473259 0.035000
v 0.669646 -0.473259 -0.035000
v 0.748323 -0.500013 0.035000
v 0.748323 -0.500013 -0.035000
v 0.681805 -0.455568 0.035000
v 0.681805 -0.455568 -0.035000
v 0.837242 -0.546833 0.035000
v 0.837242 -0.546833 -0.035000
v 0.686538 -0.448403 0.035000
v 0.686538 -0.448403 -0.035000
v 0.847122 -0.531399 0.035000
v 0.847122 -0.531399 -0.035000
v 0.694640 -0.435747 0.035000
v 0.694640 -0.435747 -0.035000
v 0.767376 -0.470249 0.035000
v 0.767376 -0.470249 -0.035000
v 0.699165 -0.428449 0.035000
v 0.699165 -0.428449 -0.035000
v 0.779423 -0.450000 0.035000
v 0.779423 -0.450000 -0.035000
v 0.710141 -0.410000 0.035000
v 0.710141 -0.410000 -0.035000
v 0.871214 -0.490904 0.035000
v 0.871214 -0.490904 -0.035000
v 0.714395 -0.402541 0.035000
v 0.714395 -0.402541 -0.035000
v 0.880063 -0.474856 0.035000
v 0.880063 -0.474856 -0.035000
v 0.721652 -0.389382 0.035000
v 0.721652 -0.389382 -0.035000
v 0.796489 -0.419053 0.035000
v 0.796489 -0.419053 -0.035000
v 0.725690 -0.381804 0.035000
v 0.725690 -0.381804 -0.035000
v 0.807185 -0.398060 0.035000
v 0.807185 -0.398060 -0.035000
v 0.735436 -0.362677 0.035000
v 0.735436 -0.362677 -0.035000
v 0.901455 -0.432873 0.035000
v 0.901455 -0.432873 -0.035000
v 0.739193 -0.354956 0.035000
v 0.739193 -0.354956 -0.035000
v 0.909236 -0.416281 0.035000
v 0.909236 -0.416281 -0.035000
v 0.745574 -0.341350 0.035000
v 0.745574 -0.341350 -0.035000
v 0.822191 -0.366063 0.035000
v 0.822191 -0.366063 -0.035000
v 0.749107 -0.333524 0.035000
v 0.749107 -0.333524 -0.035000
v 0.831492 -0.344415 0.035000
v 0.831492 -0.344415 -0.035000
v 0.757581 -0.313800 0.035000
v 0.757581 -0.313800 -0.035000
v 0.927836 -0.372988 0.035000
v 0.927836 -0.372988 -0.035000
v 0.760826 -0.305850 0.035000
v 0.760826 -0.305850 -0.035000
v 0.934515 -0.355923 0.035000
v 0.934515 -0.355923 -0.035000
v 0.766303 -0.291857 0.035000
v 0.766303 -0.291857 -0.035000
v 0.844372 -0.311505 0.035000
v 0.844372 -0.311505 -0.035000
v 0.769317 -0.283816 0.035000
v 0.769317 -0.283816 -0.035000
v 0.852237 -0.289296 0.035000
v 0.852237 -0.289296 -0.035000
v 0.776483 -0.263580 0.035000
v 0.776483 -0.263580 -0.035000
v 0.950244 -0.311506 0.035000
v 0.950244 -0.311506 -0.035000
v 0.779200 -0.255435 0.035000
v 0.779200 -0.255435 -0.035000
v 0.955793 -0.294040 0.035000
v 0.955793 -0.294040 -0.035000
v 0.783750 -0.241113 0.035000
v 0.783750 -0.241113 -0.035000
v 0.862938 -0.255614 0.035000
v 0.862938 -0.255614 -0.035000
v 0.786232 -0.232893 0.035000
v 0.786232 -0.232893 -0.035000
v 0.869333 -0.232937 0.035000
v 0.869333 -0.232937 -0.035000
v 0.792059 -0.212232 0.035000
v 0.792059 -0.212232 -0.035000
v 0.968583 -0.248690 0.035000
v 0.968583 -0.248690 -0.035000
v 0.794238 -0.203926 0.035000
v 0.794238 -0.203926 -0.035000
v 0.972978 -0.230899 0.035000
v 0.972978 -0.230899 -0.035000
v 0.797842 -0.189337 0.035000
v 0.797842 -0.189337 -0.035000
v 0.877808 -0.198628 0.035000
v 0.877808 -0.198628 -0.035000
v 0.799781 -0.180972 0.035000
v 0.799781 -0.180972 -0.035000
v 0.882707 -0.175581 0.035000
v 0.882707 -0.175581 -0.035000
v 0.804244 -0.159974 0.035000
v 0.804244 -0.159974 -0.035000
v 0.982774 -0.184809 0.035000
v 0.982774 -0.184809 -0.035000
v 0.805875 -0.151543 0.035000
v 0.805875 -0.151543 -0.035000
v 0.985996 -0.166769 0.035000
v 0.985996 -0.166769 -0.035000
v 0.808517 -0.136750 0.035000
v 0.808517 -0.136750 -0.035000
v 0.888920 -0.140791 0.035000
v 0.888920 -0.140791 -0.035000
v 0.809904 -0.128276 0.035000
v 0.809904 -0.128276 -0.035000
v 0.892300 -0.117474 0.035000
v 0.892300 -0.117474 -0.035000
v 0.812985 -0.107031 0.035000
v 0.812985 -0.107031 -0.035000
v 0.992757 -0.120137 0.035000
v 0.992757 -0.120137 -0.035000
v 0.814061 -0.098512 0.035000
v 0.814061 -0.098512 -0.035000
v 0.994792 -0.101924 0.035000
v 0.994792 -0.101924 -0.035000
v 0.815730 -0.083578 0.035000
v 0.815730 -0.083578 -0.035000
v 0.896224 -0.082351 0.035000
v 0.896224 -0.082351 -0.035000
v 0.816560 -0.075031 0.035000
v 0.816560 -0.075031 -0.035000
v 0.898073 -0.058863 0.035000
v 0.898073 -0.058863 -0.035000
v 0.818244 -0.053631 0.035000
v 0.818244 -0.053631 -0.035000
v 0.998489 -0.054950 0.035000
v 0.998489 -0.054950 -0.035000
v 0.818761 -0.045059 0.035000
v 0.818761 -0.045059 -0.035000
v 0.999328 -0.036644 0.035000
v 0.999328 -0.036644 -0.035000
v 0.819449 -0.030048 0.035000
v 0.819449 -0.030048 -0.035000
v 0.899692 -0.023559 0.035000
v 0.899692 -0.023559 -0.035000
v 0.819719 -0.021465 0.035000
v 0.819719 -0.021465 -0.035000

f 2 6 5 1
f 1 5 7 3
f 4 8 6 2
f 3 7 8 4
f 6 10 9 5
f 5 9 11 7
f 8 12 10 6
f 7 11 12 8
f 10 14 13 9
f 9 13 15 11
f 12 16 14 10
f 11 15 16 12
f 14 18 17 13
f 13 17 19 15
f 16 20 18 14
f 15 19 20 16
f 18 22 21 17
f 17 21 23 19
f 20 24 22 18
f 19 23 24 20
f 22 26 25 21
f 21 25 27 23
f 24 28 26 22
f 23 27 28 24
f 26 30 29 25
f 25 29 31 27
f 28 32 30 26
f 27 31 32 28
f 30 34 33 29
f 29 33 35 31
f 32 36 34 30
f 31 35 36 32
f 34 38 37 33
f 33 37 39 35
f 36 40 38 34
f 35 39 40 36
f 38 42 41 37
f 37 41 43 39
f 40 44 42 38
f 39 43 44 40
f 42 46 45 41
f 41 45 47 43
f 44 48 46 42
f 43 47 48 44
f 46 50 49 45
f 45 49 51 47
f 48 52 50 46
f 47 51 52 48
f 50 54 53 49
f 49 53 55 51
f 52 56 54 50
f 51 55 56 52
f 54 58 57 53
f 53 57 59 55
f 56 60 58 54
f 55 59 60 56
f 58 62 61 57
f 57 61 63 59
f 60 64 62 58
f 59 63 64 60
f 62 66 65 61
f 61 65 67 63
f 64 68 66 62
f 63 67 68 64
f 66 70 69 65
f 65 69 71 67
f 68 72 70 66
f 67 71 72 68
f 70 74 73 69
f 69 73 75 71
f 72 76 74 70
f 71 75 76 72
f 74 78 77 73
f 73 77 79 75
f 76 80 78 74
f 75 79 80 76
f 78 82 81 77
f 77 81 83 79
f 80 84 82 78
f 79 83 84 80
f 82 86 85 81
f 81 85 87 83
f 84 88 86 82
f 83 87 88 84
f 86 90 89 85
f 85 89 91 87
f 88 92 90 86
f 87 91 92 88
f 90 94 93 89
f 89 93 95 91
f 92 96 94 90
f 91 95 96 92
f 94 98 97 93
f 93 97 99 95
f 96 100 98 94
f 95 99 100 96
f 98 102 101 97
f 97 101 103 99
f 100 104 102 98
f 99 103 104 100
f 102 106 105 101
f 101 105 107 103
f 104 108 106 102
f 103 107 108 104
f 106 110 109 105
f 105 109 111 107
f 108 112 110 106
f 107 111 112 108
f 110 114 113 109
f 109 113 115 111
f 112 116 114 110
f 111 115 116 112
f 114 118 117 113
f 113 117 119 115
f 116 120 118 114
f 115 119 120 116
f 118 122 121 117
f 117 121 123 119
f 120 124 122 118
f 119 123 124 120
f 122 126 125 121
f 121 125 127 123
f 124 128 126 122
f 123 127 128 124
f 126 130 129 125
f 125 129 131 127
f 128 132 130 126
f 127 131 132 128
f 130 134 133 129
f 129 133 135 131
f 132 136 134 130
f 131 135 136 132
f 134 138 137 133
f 133 137 139 135
f 136 140 138 134
f 135 139 140 136
f 138 142 141 137
f 137 141 143 139
f 140 144 142 138
f 139 143 144 140
f 142 146 145 141
f 141 145 147 143
f 144 148 146 142
f 143 147 148 144
f 146 150 149 145
f 145 149 151 147
f 148 152 150 146
f 147 151 152 148
f 150 154 153 149
f 149 153 155 151
f 152 156 154 150
f 151 155 156 152
f 154 158 157 153
f 153 157 159 155
f 156 160 158 154
f 155 159 160 156
f 158 162 161 157
f 157 161 163 159
f 160 164 162 158
f 159 163 164 160
f 162 166 165 161
f 161 165 167 163
f 164 168 166 162
f 163 167 168 164
f 166 170 169 165
f 165 169 171 167
f 168 172 170 166
f 167 171 172 168
f 170 174 173 169
f 169 173 175 171
f 172 176 174 170
f 171 175 176 172
f 174 178 177 173
f 173 177 179 175
f 176 180 178 174
f 175 179 180 176
f 178 182 181 177
f 177 181 183 179
f 180 184 182 178
f 179 183 184 180
f 182 186 185 181
f 181 185 187 183
f 184 188 186 182
f 183 187 188 184
f 186 190 189 185
f 185 189 191 187
f 188 192 190 186
f 187 191 192 188
f 190 194 193 189
f 189 193 195 191
f 192 196 194 190
f 191 195 196 192
f 194 198 197 193
f 193 197 199 195
f 196 200 198 194
f 195 199 200 196
f 198 202 201 197
f 197 201 203 199
f 200 204 202 198
f 199 203 204 200
f 202 206 205 201
f 201 205 207 203
f 204 208 206 202
f 203 207 208 204
f 206 210 209 205
f 205 209 211 207
f 208 212 210 206
f 207 211 212 208
f 210 214 213 209
f 209 213 215 211
f 212 216 214 210
f 211 215 216 212
f 214 218 217 213
f 213 217 219 215
f 216 220 218 214
f 215 219 220 216
f 218 222 221 217
f 217 221 223 219
f 220 224 222 218
f 219 223 224 220
f 222 226 225 221
f 221 225 227 223
f 224 228 226 222
f 223 227 228 224
f 226 230 229 225
f 225 229 231 227
f 228 232 230 226
f 227 231 232 228
f 230 234 233 229
f 229 233 235 231
f 232 236 234 230
f 231 235 236 232
f 234 238 237 233
f 233 237 239 235
f 236 240 238 234
f 235 239 240 236
f 238 242 241 237
f 237 241 243 239
f 240 244 242 238
f 239 243 244 240
f 242 246 245 241
f 241 245 247 243
f 244 248 246 242
f 243 247 248 244
f 246 250 249 245
f 245 249 251 247
f 248 252 250 246
f 247 251 252 248
f 250 254 253 249
f 249 253 255 251
f 252 256 254 250
f 251 255 256 252
f 254 258 257 253
f 253 257 259 255
f 256 260 258 254
f 255 259 260 256
f 258 262 261 257
f 257 261 263 259
f 260 264 262 258
f 259 263 264 260
f 262 266 265 261
f 261 265 267 263
f 264 268 266 262
f 263 267 268 264
f 266 270 269 265
f 265 269 271 267
f 268 272 270 266
f 267 271 272 268
f 270 274 273 269
f 269 273 275 271
f 272 276 274 270
f 271 275 276 272
f 274 278 277 273
f 273 277 279 275
f 276 280 278 274
f 275 279 280 276
f 278 282 281 277
f 277 281 283 279
f 280 284 282 278
f 279 283 284 280
f 282 286 285 281
f 281 285 287 283
f 284 288 286 282
f 283 287 288 284
f 286 290 289 285
f 285 289 291 287
f 288 292 290 286
f 287 291 292 288
f 290 294 293 289
f 289 293 295 291
f 292 296 294 290
f 291 295 296 292
f 294 298 297 293
f 293 297 299 295
f 296 300 298 294
f 295 299 300 296
f 298 302 301 297
f 297 301 303 299
f 300 304 302 298
f 299 303 304 300
f 302 306 305 301
f 301 305 307 303
f 304 308 306 302
f 303 307 308 304
f 306 310 309 305
f 305 309 311 307
f 308 312 310 306
f 307 311 312 308
f 310 314 313 309
f 309 313 315 311
f 312 316 314 310
f 311 315 316 312
f 314 318 317 313
f 313 317 319 315
f 316 320 318 314
f 315 319 320 316
f 318 322 321 317
f 317 321 323 319
f 320 324 322 318
f 319 323 324 320
f 322 326 325 321
f 321 325 327 323
f 324 328 326 322
f 323 327 328 324
f 326 330 329 325
f 325 329 331 327
f 328 332 330 326
f 327 331 332 328
f 330 334 333 329
f 329 333 335 331
f 332 336 334 330
f 331 335 336 332
f 334 338 337 333
f 333 337 339 335
f 336 340 338 334
f 335 339 340 336
f 338 342 341 337
f 337 341 343 339
f 340 344 342 338
f 339 343 344 340
f 342 346 345 341
f 341 345 347 343
f 344 348 346 342
f 343 347 348 344
f 346 350 349 345
f 345 349 351 347
f 348 352 350 346
f 347 351 352 348
f 350 354 353 349
f 349 353 355 351
f 352 356 354 350
f 351 355 356 352
f 354 358 357 353
f 353 357 359 355
f 356 360 358 354
f 355 359 360 356
f 358 362 361 357
f 357 361 363 359
f 360 364 362 358
f 359 363 364 360
f 362 366 365 361
f 361 365 367 363
f 364 368 366 362
f 363 367 368 364
f 366 370 369 365
f 365 369 371 367
f 368 372 370 366
f 367 371 372 368
f 370 374 373 369
f 369 373 375 371
f 372 376 374 370
f 371 375 376 372
f 374 378 377 373
f 373 377 379 375
f 376 380 378 374
f 375 379 380 376
f 378 382 381 377
f 377 381 383 379
f 380 384 382 378
f 379 383 384 380
f 382 386 385 381
f 381 385 387 383
f 384 388 386 382
f 383 387 388 384
f 386 390 389 385
f 385 389 391 387
f 388 392 390 386
f 387 391 392 388
f 390 394 393 389
f 389 393 395 391
f 392 396 394 390
f 391 395 396 392
f 394 398 397 393
f 393 397 399 395
f 396 400 398 394
f 395 399 400 396
f 398 402 401 397
f 397 401 403 399
f 400 404 402 398
f 399 403 404 400
f 402 406 405 401
f 401 405 407 403
f 404 408 406 402
f 403 407 408 404
f 406 410 409 405
f 405 409 411 407
f 408 412 410 406
f 407 411 412 408
f 410 414 413 409
f 409 413 415 411
f 412 416 414 410
f 411 415 416 412
f 414 418 417 413
f 413 417 419 415
f 416 420 418 414
f 415 419 420 416
f 418 422 421 417
f 417 421 423 419
f 420 424 422 418
f 419 423 424 420
f 422 426 425 421
f 421 425 427 423
f 424 428 426 422
f 423 427 428 424
f 426 430 429 425
f 425 429 431 427
f 428 432 430 426
f 427 431 432 428
f 430 434 433 429
f 429 433 435 431
f 432 436 434 430
f 431 435 436 432
f 434 438 437 433
f 433 437 439 435
f 436 440 438 434
f 435 439 440 436
f 438 442 441 437
f 437 441 443 439
f 440 444 442 438
f 439 443 444 440
f 442 446 445 441
f 441 445 447 443
f 444 448 446 442
f 443 447 448 444
f 446 450 449 445
f 445 449 451 447
f 448 452 450 446
f 447 451 452 448
f 450 454 453 449
f 449 453 455 451
f 452 456 454 450
f 451 455 456 452
f 454 458 457 453
f 453 457 459 455
f 456 460 458 454
f 455 459 460 456
f 458 462 461 457
f 457 461 463 459
f 460 464 462 458
f 459 463 464 460
f 462 466 465 461
f 461 465 467 463
f 464 468 466 462
f 463 467 468 464
f 466 470 469 465
f 465 469 471 467
f 468 472 470 466
f 467 471 472 468
f 470 474 473 469
f 469 473 475 471
f 472 476 474 470
f 471 475 476 472
f 474 478 477 473
f 473 477 479 475
f 476 480 478 474
f 475 479 480 476
f 478 482 481 477
f 477 481 483 479
f 480 484 482 478
f 479 483 484 480
f 482 486 485 481
f 481 485 487 483
f 484 488 486 482
f 483 487 488 484
f 486 490 489 485
f 485 489 491 487
f 488 492 490 486
f 487 491 492 488
f 490 494 493 489
f 489 493 495 491
f 492 496 494 490
f 491 495 496 492
f 494 498 497 493
f 493 497 499 495
f 496 500 498 494
f 495 499 500 496
f 498 502 501 497
f 497 501 503 499
f 500 504 502 498
f 499 503 504 500
f 502 506 505 501
f 501 505 507 503
f 504 508 506 502
f 503 507 508 504
f 506 510 509 505
f 505 509 511 507
f 508 512 510 506
f 507 511 512 508
f 510 514 513 509
f 509 513 515 511
f 512 516 514 510
f 511 515 516 512
f 514 518 517 513
f 513 517 519 515
f 516 520 518 514
f 515 519 520 516
f 518 522 521 517
f 517 521 523 519
f 520 524 522 518
f 519 523 524 520
f 522 526 525 521
f 521 525 527 523
f 524 528 526 522
f 523 527 528 524
f 526 530 529 525
f 525 529 531 527
f 528 532 530 526
f 527 531 532 528
f 530 534 533 529
f 529 533 535 531
f 532 536 534 530
f 531 535 536 532
f 534 538 537 533
f 533 537 539 535
f 536 540 538 534
f 535 539 540 536
f 538 542 541 537
f 537 541 543 539
f 540 544 542 538
f 539 543 544 540
f 542 546 545 541
f 541 545 547 543
f 544 548 546 542
f 543 547 548 544
f 546 550 549 545
f 545 549 551 547
f 548 552 550 546
f 547 551 552 548
f 550 554 553 549
f 549 553 555 551
f 552 556 554 550
f 551 555 556 552
f 554 558 557 553
f 553 557 559 555
f 556 560 558 554
f 555 559 560 556
f 558 562 561 557
f 557 561 563 559
f 560 564 562 558
f 559 563 564 560
f 562 566 565 561
f 561 565 567 563
f 564 568 566 562
f 563 567 568 564
f 566 570 569 565
f 565 569 571 567
f 568 572 570 566
f 567 571 572 568
f 570 574 573 569
f 569 573 575 571
f 572 576 574 570
f 571 575 576 572
f 574 578 577 573
f 573 577 579 575
f 576 580 578 574
f 575 579 580 576
f 578 582 581 577
f 577 581 583 579
f 580 584 582 578
f 579 583 584 580
f 582 586 585 581
f 581 585 587 583
f 584 588 586 582
f 583 587 588 584
f 586 590 589 585
f 585 589 591 587
f 588 592 590 586
f 587 591 592 588
f 590 594 593 589
f 589 593 595 591
f 592 596 594 590
f 591 595 596 592
f 594 598 597 593
f 593 597 599 595
f 596 600 598 594
f 595 599 600 596
f 598 602 601 597
f 597 601 603 599
f 600 604 602 598
f 599 603 604 600
f 602 606 605 601
f 601 605 607 603
f 604 608 606 602
f 603 607 608 604
f 606 610 609 605
f 605 609 611 607
f 608 612 610 606
f 607 611 612 608
f 610 614 613 609
f 609 613 615 611
f 612 616 614 610
f 611 615 616 612
f 614 618 617 613
f 613 617 619 615
f 616 620 618 614
f 615 619 620 616
f 618 622 621 617
f 617 621 623 619
f 620 624 622 618
f 619 623 624 620
f 622 626 625 621
f 621 625 627 623
f 624 628 626 622
f 623 627 628 624
f 626 630 629 625
f 625 629 631 627
f 628 632 630 626
f 627 631 632 628
f 630 634 633 629
f 629 633 635 631
f 632 636 634 630
f 631 635 636 632
f 634 638 637 633
f 633 637 639 635
f 636 640 638 634
f 635 639 640 636
f 638 642 641 637
f 637 641 643 639
f 640 644 642 638
f 639 643 644 640
f 642 646 645 641
f 641 645 647 643
f 644 648 646 642
f 643 647 648 644
f 646 650 649 645
f 645 649 651 647
f 648 652 650 646
f 647 651 652 648
f 650 654 653 649
f 649 653 655 651
f 652 656 654 650
f 651 655 656 652
f 654 658 657 653
f 653 657 659 655
f 656 660 658 654
f 655 659 660 656
f 658 662 661 657
f 657 661 663 659
f 660 664 662 658
f 659 663 664 660
f 662 666 665 661
f 661 665 667 663
f 664 668 666 662
f 663 667 668 664
f 666 670 669 665
f 665 669 671 667
f 668 672 670 666
f 667 671 672 668
f 670 674 673 669
f 669 673 675 671
f 672 676 674 670
f 671 675 676 672
f 674 678 677 673
f 673 677 679 675
f 676 680 678 674
f 675 679 680 676
f 678 682 681 677
f 677 681 683 679
f 680 684 682 678
f 679 683 684 680
f 682 686 685 681
f 681 685 687 683
f 684 688 686 682
f 683 687 688 684
f 686 690 689 685
f 685 689 691 687
f 688 692 690 686
f 687 691 692 688
f 690 694 693 689
f 689 693 695 691
f 692 696 694 690
f 691 695 696 692
f 694 698 697 693
f 693 697 699 695
f 696 700 698 694
f 695 699 700 696
f 698 702 701 697
f 697 701 703 699
f 700 704 702 698
f 699 703 704 700
f 702 706 705 701
f 701 705 707 703
f 704 708 706 702
f 703 707 708 704
f 706 710 709 705
f 705 709 711 707
f 708 712 710 706
f 707 711 712 708
f 710 714 713 709
f 709 713 715 711
f 712 716 714 710
f 711 715 716 712
f 714 718 717 713
f 713 717 719 715
f 716 720 718 714
f 715 719 720 716
f 718 722 721 717
f 717 721 723 719
f 720 724 722 718
f 719 723 724 720
f 722 726 725 721
f 721 725 727 723
f 724 728 726 722
f 723 727 728 724
f 726 730 729 725
f 725 729 731 727
f 728 732 730 726
f 727 731 732 728
f 730 734 733 729
f 729 733 735 731
f 732 736 734 730
f 731 735 736 732
f 734 738 737 733
f 733 737 739 735
f 736 740 738 734
f 735 739 740 736
f 738 742 741 737
f 737 741 743 739
f 740 744 742 738
f 739 743 744 740
f 742 746 745 741
f 741 745 747 743
f 744 748 746 742
f 743 747 748 744
f 746 750 749 745
f 745 749 751 747
f 748 752 750 746
f 747 751 752 748
f 750 754 753 749
f 749 753 755 751
f 752 756 754 750
f 751 755 756 752
f 754 758 757 753
f 753 757 759 755
f 756 760 758 754
f 755 759 760 756
f 758 762 761 757
f 757 761 763 759
f 760 764 762 758
f 759 763 764 760
f 762 766 765 761
f 761 765 767 763
f 764 768 766 762
f 763 767 768 764
f 766 770 769 765
f 765 769 771 767
f 768 772 770 766
f 767 771 772 768
f 770 774 773 769
f 769 773 775 771
f 772 776 774 770
f 771 775 776 772
f 774 778 777 773
f 773 777 779 775
f 776 780 778 774
f 775 779 780 776
f 778 782 781 777
f 777 781 783 779
f 780 784 782 778
f 779 783 784 780
f 782 786 785 781
f 781 785 787 783
f 784 788 786 782
f 783 787 788 784
f 786 790 789 785
f 785 789 791 787
f 788 792 790 786
f 787 791 792 788
f 790 794 793 789
f 789 793 795 791
f 792 796 794 790
f 791 795 796 792
f 794 798 797 793
f 793 797 799 795
f 796 800 798 794
f 795 799 800 796
f 798 802 801 797
f 797 801 803 799
f 800 804 802 798
f 799 803 804 800
f 802 806 805 801
f 801 805 807 803
f 804 808 806 802
f 803 807 808 804
f 806 810 809 805
f 805 809 811 807
f 808 812 810 806
f 807 811 812 808
f 810 814 813 809
f 809 813 815 811
f 812 816 814 810
f 811 815 816 812
f 814 818 817 813
f 813 817 819 815
f 816 820 818 814
f 815 819 820 816
f 818 822 821 817
f 817 821 823 819
f 820 824 822 818
f 819 823 824 820
f 822 826 825 821
f 821 825 827 823
f 824 828 826 822
f 823 827 828 824
f 826 830 829 825
f 825 829 831 827
f 828 832 830 826
f 827 831 832 828
f 830 834 833 829
f 829 833 835 831
f 832 836 834 830
f 831 835 836 832
f 834 838 837 833
f 833 837 839 835
f 836 840 838 834
f 835 839 840 836
f 838 842 841 837
f 837 841 843 839
f 840 844 842 838
f 839 843 844 840
f 842 846 845 841
f 841 845 847 843
f 844 848 846 842
f 843 847 848 844
f 846 850 849 845
f 845 849 851 847
f 848 852 850 846
f 847 851 852 848
f 850 854 853 849
f 849 853 855 851
f 852 856 854 850
f 851 855 856 852
f 854 858 857 853
f 853 857 859 855
f 856 860 858 854
f 855 859 860 856
f 858 862 861 857
f 857 861 863 859
f 860 864 862 858
f 859 863 864 860
f 862 866 865 861
f 861 865 867 863
f 864 868 866 862
f 863 867 868 864
f 866 870 869 865
f 865 869 871 867
f 868 872 870 866
f 867 871 872 868
f 870 874 873 869
f 869 873 875 871
f 872 876 874 870
f 871 875 876 872
f 874 878 877 873
f 873 877 879 875
f 876 880 878 874
f 875 879 880 876
f 878 882 881 877
f 877 881 883 879
f 880 884 882 878
f 879 883 884 880
f 882 886 885 881
f 881 885 887 883
f 884 888 886 882
f 883 887 888 884
f 886 890 889 885
f 885 889 891 887
f 888 892 890 886
f 887 891 892 888
f 890 894 893 889
f 889 893 895 891
f 892 896 894 890
f 891 895 896 892
f 894 898 897 893
f 893 897 899 895
f 896 900 898 894
f 895 899 900 896
f 898 902 901 897
f 897 901 903 899
f 900 904 902 898
f 899 903 904 900
f 902 906 905 901
f 901 905 907 903
f 904 908 906 902
f 903 907 908 904
f 906 910 909 905
f 905 909 911 907
f 908 912 910 906
f 907 911 912 908
f 910 914 913 909
f 909 913 915 911
f 912 916 914 910
f 911 915 916 912
f 914 918 917 913
f 913 917 919 915
f 916 920 918 914
f 915 919 920 916
f 918 922 921 917
f 917 921 923 919
f 920 924 922 918
f 919 923 924 920
f 922 926 925 921
f 921 925 927 923
f 924 928 926 922
f 923 927 928 924
f 926 930 929 925
f 925 929 931 927
f 928 932 930 926
f 927 931 932 928
f 930 934 933 929
f 929 933 935 931
f 932 936 934 930
f 931 935 936 932
f 934 938 937 933
f 933 937 939 935
f 936 940 938 934
f 935 939 940 936
f 938 942 941 937
f 937 941 943 939
f 940 944 942 938
f 939 943 944 940
f 942 946 945 941
f 941 945 947 943
f 944 948 946 942
f 943 947 948 944
f 946 950 949 945
f 945 949 951 947
f 948 952 950 946
f 947 951 952 948
f 950 954 953 949
f 949 953 955 951
f 952 956 954 950
f 951 955 956 952
f 954 958 957 953
f 953 957 959 955
f 956 960 958 954
f 955 959 960 956
f 958 962 961 957
f 957 961 963 959
f 960 964 962 958
f 959 963 964 960
f 962 966 965 961
f 961 965 967 963
f 964 968 966 962
f 963 967 968 964
f 966 970 969 965
f 965 969 971 967
f 968 972 970 966
f 967 971 972 968
f 970 974 973 969
f 969 973 975 971
f 972 976 974 970
f 971 975 976 972
f 974 978 977 973
f 973 977 979 975
f 976 980 978 974
f 975 979 980 976
f 978 982 981 977
f 977 981 983 979
f 980 984 982 978
f 979 983 984 980
f 982 986 985 981
f 981 985 987 983
f 984 988 986 982
f 983 987 988 984
f 986 990 989 985
f 985 989 991 987
f 988 992 990 986
f 987 991 992 988
f 990 994 993 989
f 989 993 995 991
f 992 996 994 990
f 991 995 996 992
f 994 998 997 993
f 993 997 999 995
f 996 1000 998 994
f 995 999 1000 996
f 998 1002 1001 997
f 997 1001 1003 999
f 1000 1004 1002 998
f 999 1003 1004 1000
f 1002 1006 1005 1001
f 1001 1005 1007 1003
f 1004 1008 1006 1002
f 1003 1007 1008 1004
f 1006 1010 1009 1005
f 1005 1009 1011 1007
f 1008 1012 1010 1006
f 1007 1011 1012 1008
f 1010 1014 1013 1009
f 1009 1013 1015 1011
f 1012 1016 1014 1010
f 1011 1015 1016 1012
f 1014 1018 1017 1013
f 1013 1017 1019 1015
f 1016 1020 1018 1014
f 1015 1019 1020 1016
f 1018 1022 1021 1017
f 1017 1021 1023 1019
f 1020 1024 1022 1018
f 1019 1023 1024 1020
f 1022 1026 1025 1021
f 1021 1025 1027 1023
f 1024 1028 1026 1022
f 1023 1027 1028 1024
f 1026 1030 1029 1025
f 1025 1029 1031 1027
f 1028 1032 1030 1026
f 1027 1031 1032 1028
f 1030 1034 1033 1029
f 1029 1033 1035 1031
f 1032 1036 1034 1030
f 1031 1035 1036 1032
f 1034 1038 1037 1033
f 1033 1037 1039 1035
f 1036 1040 1038 1034
f 1035 1039 1040 1036
f 1038 1042 1041 1037
f 1037 1041 1043 1039
f 1040 1044 1042 1038
f 1039 1043 1044 1040
f 1042 1046 1045 1041
f 1041 1045 1047 1043
f 1044 1048 1046 1042
f 1043 1047 1048 1044
f 1046 1050 1049 1045
f 1045 1049 1051 1047
f 1048 1052 1050 1046
f 1047 1051 1052 1048
f 1050 1054 1053 1049
f 1049 1053 1055 1051
f 1052 1056 1054 1050
f 1051 1055 1056 1052
f 1054 1058 1057 1053
f 1053 1057 1059 1055
f 1056 1060 1058 1054
f 1055 1059 1060 1056
f 1058 1062 1061 1057
f 1057 1061 1063 1059
f 1060 1064 1062 1058
f 1059 1063 1064 1060
f 1062 1066 1065 1061
f 1061 1065 1067 1063
f 1064 1068 1066 1062
f 1063 1067 1068 1064
f 1066 1070 1069 1065
f 1065 1069 1071 1067
f 1068 1072 1070 1066
f 1067 1071 1072 1068
f 1070 1074 1073 1069
f 1069 1073 1075 1071
f 1072 1076 1074 1070
f 1071 1075 1076 1072
f 1074 1078 1077 1073
f 1073 1077 1079 1075
f 1076 1080 1078 1074
f 1075 1079 1080 1076
f 1078 1082 1081 1077
f 1077 1081 1083 1079
f 1080 1084 1082 1078
f 1079 1083 1084 1080
f 1082 1086 1085 1081
f 1081 1085 1087 1083
f 1084 1088 1086 1082
f 1083 1087 1088 1084
f 1086 1090 1089 1085
f 1085 1089 1091 1087
f 1088 1092 1090 1086
f 1087 1091 1092 1088
f 1090 1094 1093 1089
f 1089 1093 1095 1091
f 1092 1096 1094 1090
f 1091 1095 1096 1092
f 1094 1098 1097 1093
f 1093 1097 1099 1095
f 1096 1100 1098 1094
f 1095 1099 1100 1096
f 1098 1102 1101 1097
f 1097 1101 1103 1099
f 1100 1104 1102 1098
f 1099 1103 1104 1100
f 1102 1106 1105 1101
f 1101 1105 1107 1103
f 1104 1108 1106 1102
f 1103 1107 1108 1104
f 1106 1110 1109 1105
f 1105 1109 1111 1107
f 1108 1112 1110 1106
f 1107 1111 1112 1108
f 1110 1114 1113 1109
f 1109 1113 1115 1111
f 1112 1116 1114 1110
f 1111 1115 1116 1112
f 1114 1118 1117 1113
f 1113 1117 1119 1115
f 1116 1120 1118 1114
f 1115 1119 1120 1116
f 1118 1122 1121 1117
f 1117 1121 1123 1119
f 1120 1124 1122 1118
f 1119 1123 1124 1120
f 1122 1126 1125 1121
f 1121 1125 1127 1123
f 1124 1128 1126 1122
f 1123 1127 1128 1124
f 1126 1130 1129 1125
f 1125 1129 1131 1127
f 1128 1132 1130 1126
f 1127 1131 1132 1128
f 1130 1134 1133 1129
f 1129 1133 1135 1131
f 1132 1136 1134 1130
f 1131 1135 1136 1132
f 1134 1138 1137 1133
f 1133 1137 1139 1135
f 1136 1140 1138 1134
f 1135 1139 1140 1136
f 1138 1142 1141 1137
f 1137 1141 1143 1139
f 1140 1144 1142 1138
f 1139 1143 1144 1140
f 1142 1146 1145 1141
f 1141 1145 1147 1143
f 1144 1148 1146 1142
f 1143 1147 1148 1144
f 1146 1150 1149 1145
f 1145 1149 1151 1147
f 1148 1152 1150 1146
f 1147 1151 1152 1148
f 1150 1154 1153 1149
f 1149 1153 1155 1151
f 1152 1156 1154 1150
f 1151 1155 1156 1152
f 1154 1158 1157 1153
f 1153 1157 1159 1155
f 1156 1160 1158 1154
f 1155 1159 1160 1156
f 1158 1162 1161 1157
f 1157 1161 1163 1159
f 1160 1164 1162 1158
f 1159 1163 1164 1160
f 1162 1166 1165 1161
f 1161 1165 1167 1163
f 1164 1168 1166 1162
f 1163 1167 1168 1164
f 1166 1170 1169 1165
f 1165 1169 1171 1167
f 1168 1172 1170 1166
f 1167 1171 1172 1168
f 1170 1174 1173 1169
f 1169 1173 1175 1171
f 1172 1176 1174 1170
f 1171 1175 1176 1172
f 1174 1178 1177 1173
f 1173 1177 1179 1175
f 1176 1180 1178 1174
f 1175 1179 1180 1176
f 1178 1182 1181 1177
f 1177 1181 1183 1179
f 1180 1184 1182 1178
f 1179 1183 1184 1180
f 1182 1186 1185 1181
f 1181 1185 1187 1183
f 1184 1188 1186 1182
f 1183 1187 1188 1184
f 1186 1190 1189 1185
f 1185 1189 1191 1187
f 1188 1192 1190 1186
f 1187 1191 1192 1188
f 1190 1194 1193 1189
f 1189 1193 1195 1191
f 1192 1196 1194 1190
f 1191 1195 1196 1192
f 1194 1198 1197 1193
f 1193 1197 1199 1195
f 1196 1200 1198 1194
f 1195 1199 1200 1196
f 1198 1202 1201 1197
f 1197 1201 1203 1199
f 1200 1204 1202 1198
f 1199 1203 1204 1200
f 1202 1206 1205 1201
f 1201 1205 1207 1203
f 1204 1208 1206 1202
f 1203 1207 1208 1204
f 1206 1210 1209 1205
f 1205 1209 1211 1207
f 1208 1212 1210 1206
f 1207 1211 1212 1208
f 1210 1214 1213 1209
f 1209 1213 1215 1211
f 1212 1216 1214 1210
f 1211 1215 1216 1212
f 1214 1218 1217 1213
f 1213 1217 1219 1215
f 1216 1220 1218 1214
f 1215 1219 1220 1216
f 1218 1222 1221 1217
f 1217 1221 1223 1219
f 1220 1224 1222 1218
f 1219 1223 1224 1220
f 1222 1226 1225 1221
f 1221 1225 1227 1223
f 1224 1228 1226 1222
f 1223 1227 1228 1224
f 1226 1230 1229 1225
f 1225 1229 1231 1227
f 1228 1232 1230 1226
f 1227 1231 1232 1228
f 1230 1234 1233 1229
f 1229 1233 1235 1231
f 1232 1236 1234 1230
f 1231 1235 1236 1232
f 1234 1238 1237 1233
f 1233 1237 1239 1235
f 1236 1240 1238 1234
f 1235 1239 1240 1236
f 1238 1242 1241 1237
f 1237 1241 1243 1239
f 1240 1244 1242 1238
f 1239 1243 1244 1240
f 1242 1246 1245 1241
f 1241 1245 1247 1243
f 1244 1248 1246 1242
f 1243 1247 1248 1244
f 1246 1250 1249 1245
f 1245 1249 1251 1247
f 1248 1252 1250 1246
f 1247 1251 1252 1248
f 1250 1254 1253 1249
f 1249 1253 1255 1251
f 1252 1256 1254 1250
f 1251 1255 1256 1252
f 1254 1258 1257 1253
f 1253 1257 1259 1255
f 1256 1260 1258 1254
f 1255 1259 1260 1256
f 1258 1262 1261 1257
f 1257 1261 1263 1259
f 1260 1264 1262 1258
f 1259 1263 1264 1260
f 1262 1266 1265 1261
f 1261 1265 1267 1263
f 1264 1268 1266 1262
f 1263 1267 1268 1264
f 1266 1270 1269 1265
f 1265 1269 1271 1267
f 1268 1272 1270 1266
f 1267 1271 1272 1268
f 1270 1274 1273 1269
f 1269 1273 1275 1271
f 1272 1276 1274 1270
f 1271 1275 1276 1272
f 1274 1278 1277 1273
f 1273 1277 1279 1275
f 1276 1280 1278 1274
f 1275 1279 1280 1276
f 1278 1282 1281 1277
f 1277 1281 1283 1279
f 1280 1284 1282 1278
f 1279 1283 1284 1280
f 1282 1286 1285 1281
f 1281 1285 1287 1283
f 1284 1288 1286 1282
f 1283 1287 1288 1284
f 1286 1290 1289 1285
f 1285 1289 1291 1287
f 1288 1292 1290 1286
f 1287 1291 1292 1288
f 1290 1294 1293 1289
f 1289 1293 1295 1291
f 1292 1296 1294 1290
f 1291 1295 1296 1292
f 1294 1298 1297 1293
f 1293 1297 1299 1295
f 1296 1300 1298 1294
f 1295 1299 1300 1296
f 1298 1302 1301 1297
f 1297 1301 1303 1299
f 1300 1304 1302 1298
f 1299 1303 1304 1300
f 1302 1306 1305 1301
f 1301 1305 1307 1303
f 1304 1308 1306 1302
f 1303 1307 1308 1304
f 1306 1310 1309 1305
f 1305 1309 1311 1307
f 1308 1312 1310 1306
f 1307 1311 1312 1308
f 1310 1314 1313 1309
f 1309 1313 1315 1311
f 1312 1316 1314 1310
f 1311 1315 1316 1312
f 1314 1318 1317 1313
f 1313 1317 1319 1315
f 1316 1320 1318 1314
f 1315 1319 1320 1316
f 1318 1322 1321 1317
f 1317 1321 1323 1319
f 1320 1324 1322 1318
f 1319 1323 1324 1320
f 1322 1326 1325 1321
f 1321 1325 1327 1323
f 1324 1328 1326 1322
f 1323 1327 1328 1324
f 1326 1330 1329 1325
f 1325 1329 1331 1327
f 1328 1332 1330 1326
f 1327 1331 1332 1328
f 1330 1334 1333 1329
f 1329 1333 1335 1331
f 1332 1336 1334 1330
f 1331 1335 1336 1332
f 1334 1338 1337 1333
f 1333 1337 1339 1335
f 1336 1340 1338 1334
f 1335 1339 1340 1336
f 1338 1342 1341 1337
f 1337 1341 1343 1339
f 1340 1344 1342 1338
f 1339 1343 1344 1340
f 1342 1346 1345 1341
f 1341 1345 1347 1343
f 1344 1348 1346 1342
f 1343 1347 1348 1344
f 1346 1350 1349 1345
f 1345 1349 1351 1347
f 1348 1352 1350 1346
f 1347 1351 1352 1348
f 1350 1354 1353 1349
f 1349 1353 1355 1351
f 1352 1356 1354 1350
f 1351 1355 1356 1352
f 1354 1358 1357 1353
f 1353 1357 1359 1355
f 1356 1360 1358 1354
f 1355 1359 1360 1356
f 1358 1362 1361 1357
f 1357 1361 1363 1359
f 1360 1364 1362 1358
f 1359 1363 1364 1360
f 1362 1366 1365 1361
f 1361 1365 1367 1363
f 1364 1368 1366 1362
f 1363 1367 1368 1364
f 1366 1370 1369 1365
f 1365 1369 1371 1367
f 1368 1372 1370 1366
f 1367 1371 1372 1368
f 1370 1374 1373 1369
f 1369 1373 1375 1371
f 1372 1376 1374 1370
f 1371 1375 1376 1372
f 1374 1378 1377 1373
f 1373 1377 1379 1375
f 1376 1380 1378 1374
f 1375 1379 1380 1376
f 1378 1382 1381 1377
f 1377 1381 1383 1379
f 1380 1384 1382 1378
f 1379 1383 1384 1380
f 1382 1386 1385 1381
f 1381 1385 1387 1383
f 1384 1388 1386 1382
f 1383 1387 1388 1384
f 1386 1390 1389 1385
f 1385 1389 1391 1387
f 1388 1392 1390 1386
f 1387 1391 1392 1388
f 1390 1394 1393 1389
f 1389 1393 1395 1391
f 1392 1396 1394 1390
f 1391 1395 1396 1392
f 1394 1398 1397 1393
f 1393 1397 1399 1395
f 1396 1400 1398 1394
f 1395 1399 1400 1396
f 1398 1402 1401 1397
f 1397 1401 1403 1399
f 1400 1404 1402 1398
f 1399 1403 1404 1400
f 1402 1406 1405 1401
f 1401 1405 1407 1403
f 1404 1408 1406 1402
f 1403 1407 1408 1404
f 1406 1410 1409 1405
f 1405 1409 1411 1407
f 1408 1412 1410 1406
f 1407 1411 1412 1408
f 1410 1414 1413 1409
f 1409 1413 1415 1411
f 1412 1416 1414 1410
f 1411 1415 1416 1412
f 1414 1418 1417 1413
f 1413 1417 1419 1415
f 1416 1420 1418 1414
f 1415 1419 1420 1416
f 1418 1422 1421 1417
f 1417 1421 1423 1419
f 1420 1424 1422 1418
f 1419 1423 1424 1420
f 1422 1426 1425 1421
f 1421 1425 1427 1423
f 1424 1428 1426 1422
f 1423 1427 1428 1424
f 1426 1430 1429 1425
f 1425 1429 1431 1427
f 1428 1432 1430 1426
f 1427 1431 1432 1428
f 1430 1434 1433 1429
f 1429 1433 1435 1431
f 1432 1436 1434 1430
f 1431 1435 1436 1432
f 1434 1438 1437 1433
f 1433 1437 1439 1435
f 1436 1440 1438 1434
f 1435 1439 1440 1436
f 1438 1442 1441 1437
f 1437 1441 1443 1439
f 1440 1444 1442 1438
f 1439 1443 1444 1440
f 1442 1446 1445 1441
f 1441 1445 1447 1443
f 1444 1448 1446 1442
f 1443 1447 1448 1444
f 1446 1450 1449 1445
f 1445 1449 1451 1447
f 1448 1452 1450 1446
f 1447 1451 1452 1448
f 1450 1454 1453 1449
f 1449 1453 1455 1451
f 1452 1456 1454 1450
f 1451 1455 1456 1452
f 1454 1458 1457 1453
f 1453 1457 1459 1455
f 1456 1460 1458 1454
f 1455 1459 1460 1456
f 1458 1462 1461 1457
f 1457 1461 1463 1459
f 1460 1464 1462 1458
f 1459 1463 1464 1460
f 1462 1466 1465 1461
f 1461 1465 1467 1463
f 1464 1468 1466 1462
f 1463 1467 1468 1464
f 1466 1470 1469 1465
f 1465 1469 1471 1467
f 1468 1472 1470 1466
f 1467 1471 1472 1468
f 1470 1474 1473 1469
f 1469 1473 1475 1471
f 1472 1476 1474 1470
f 1471 1475 1476 1472
f 1474 1478 1477 1473
f 1473 1477 1479 1475
f 1476 1480 1478 1474
f 1475 1479 1480 1476
f 1478 1482 1481 1477
f 1477 1481 1483 1479
f 1480 1484 1482 1478
f 1479 1483 1484 1480
f 1482 1486 1485 1481
f 1481 1485 1487 1483
f 1484 1488 1486 1482
f 1483 1487 1488 1484
f 1486 1490 1489 1485
f 1485 1489 1491 1487
f 1488 1492 1490 1486
f 1487 1491 1492 1488
f 1490 1494 1493 1489
f 1489 1493 1495 1491
f 1492 1496 1494 1490
f 1491 1495 1496 1492
f 1494 1498 1497 1493
f 1493 1497 1499 1495
f 1496 1500 1498 1494
f 1495 1499 1500 1496
f 1498 1502 1501 1497
f 1497 1501 1503 1499
f 1500 1504 1502 1498
f 1499 1503 1504 1500
f 1502 1506 1505 1501
f 1501 1505 1507 1503
f 1504 1508 1506 1502
f 1503 1507 1508 1504
f 1506 1510 1509 1505
f 1505 1509 1511 1507
f 1508 1512 1510 1506
f 1507 1511 1512 1508
f 1510 1514 1513 1509
f 1509 1513 1515 1511
f 1512 1516 1514 1510
f 1511 1515 1516 1512
f 1514 1518 1517 1513
f 1513 1517 1519 1515
f 1516 1520 1518 1514
f 1515 1519 1520 1516
f 1518 1522 1521 1517
f 1517 1521 1523 1519
f 1520 1524 1522 1518
f 1519 1523 1524 1520
f 1522 1526 1525 1521
f 1521 1525 1527 1523
f 1524 1528 1526 1522
f 1523 1527 1528 1524
f 1526 1530 1529 1525
f 1525 1529 1531 1527
f 1528 1532 1530 1526
f 1527 1531 1532 1528
f 1530 1534 1533 1529
f 1529 1533 1535 1531
f 1532 1536 1534 1530
f 1531 1535 1536 1532
f 1534 2 1 1533
f 1533 1 3 1535
f 1536 4 2 1534
f 1535 3 4 1536
